<?xml version="1.0" encoding="UTF-8"?>
<svg id="Layer_1" data-name="Layer 1" xmlns="http://www.w3.org/2000/svg" viewBox="0 0 595.28 1172.03">
  <defs>
    <style>
      .cls-1, .cls-2 {
        fill: #fff;
      }

      .cls-3 {
        fill: #fef5de;
      }

      .cls-4 {
        fill: #0f3048;
      }

      .cls-2 {
        opacity: .83;
      }

      .cls-5 {
        fill: #3f1c16;
        opacity: .77;
      }

      .cls-6 {
        fill: #13110c;
        opacity: .26;
      }

      .cls-7 {
        fill: #7b170f;
        opacity: .84;
      }

      .cls-8 {
        fill: #c12021;
      }
    </style>
  </defs>
  <rect class="cls-4" y="229.51" width="595.28" height="374.43"/>
  <rect class="cls-3" x=".98" y="601.91" width="594.3" height="469.48"/>
  <polygon class="cls-2" points="281.8 599.89 282.21 599.89 290.65 599.89 290.65 606.06 305.62 606.06 305.62 599.89 407.53 599.38 455.48 567 595.28 565.63 595.28 552.02 457.44 552.84 408.51 585.22 305.77 586.23 305.77 581.17 291.1 581.17 289.14 581.17 289.14 585.22 284.25 585.22 284.25 588.25 282.29 588.25 281.8 599.89"/>
  <polygon class="cls-5" points="500.49 565.99 452.54 568.02 406.7 598.88 306.64 598.88 305.77 606.47 288.16 606.47 287.54 598.88 281.8 598.88 281.8 624.6 290.61 624.17 290.61 628.26 305.28 628.22 305.28 624.17 405.09 624.17 453.03 657.56 457.93 659.59 500 659.08 500.49 565.99"/>
  <polyline class="cls-7" points="497.57 658.02 497.57 565.54 595.28 565.99 595.28 659.59 497.06 659.08"/>
  <polyline class="cls-6" points="592.34 668.16 437.84 668.16 402.15 654.53 304.29 654.53 299.41 657.56 288.65 657.56 288.65 654.53 281.84 654.53 281.84 649.35 276.81 649.35 276.91 644.41 281.8 641.37 281.8 637.33 289.97 637.33 302.75 637.33 302.35 640.36 401.45 637.33 415.49 632.78 455.97 659.59 592.34 659.59"/>
  <path class="cls-8" d="m425.64,1069.88c-1.27-6.93-3.87-16.86-9.78-27.32-9.87-17.45-23.5-26.71-38.16-36.43-30.6-20.28-49.9-30.35-49.9-30.35-3.15-1.64-10.87-5.6-14.68-14.17-.79-1.77-3.26-7.9-1.96-14.17,2.17-10.48,13.15-12.9,35.23-26.31,16.42-9.97,26.78-16.41,34.25-28.33,4.45-7.11,10.47-16.07,8.81-26.31-2.05-12.62-14.44-19.71-39.14-33.39-18.73-10.37-25.56-11.64-43.05-21.25-15.59-8.56-27.3-10.51-34.25-22.26-1.61-2.72-5.22-9.02-4.89-17.2.45-11.18,8.02-19.82,13.7-26.31,6.98-7.97,11.24-9.43,14.68-17.2,1.9-4.31,3.9-8.83,2.94-13.15-4.8-21.54-82.29-33.9-91.98-34.4-.85-.04-3.87-.13-4.89-2.02-1.35-2.5,1.63-6.63,1.96-7.08,4.7-6.39,15.81-5.07,24.46-5.06,3.3,0,40.87-.28,48.92-17.2,2.46-5.18-.42-6.49,2.94-26.31.53-3.11,1.33-7.44,0-8.09-1.3-.64-4.2,2.45-5.87,5.06-4.84,7.58-1.09,13.92-2.94,19.22-4.2,12.05-33.36,7.2-64.58,15.18-19.49,4.98-32.12,5.8-36.2,15.18-.41.94-2.98,6.28-.98,11.13,2.07,5.01,7.75,6.47,14.19,8.6,13.72,4.54,28.89,9.74,37.18,21.25,1.36,1.88,5.87,8.13,3.91,13.15-1.68,4.33-7.36,5.66-8.81,6.07-15.27,4.37-36.44,31.21-35.23,54.64,1.21,23.3,24.38,38.55,27.4,40.47,16.82,10.74,26.11,4.22,45.99,16.19,5.77,3.47,25.64,15.43,25.44,29.34-.22,15.47-25.17,26.49-45.99,35.41-56.58,24.27-85.37,28.85-133.07,53.63-31.89,16.57-39.51,25.95-44.03,34.4-15.55,29.1-3.31,63.97,1.96,76.9l366.44-1.52Z"/>
  <g>
    <path class="cls-1" d="m258.54,332.79v-10.78h-21.58v-3.53l20.73-25.27h6.79v24.6h6.5v4.2h-6.5v10.78h-5.93Zm0-14.98v-13.21c0-2.07.07-4.14.21-6.21h-.21c-1.43,2.31-2.57,4.02-3.86,5.84l-11.36,13.45v.12h15.22Z"/>
    <path class="cls-1" d="m306.64,312.58c0,13.46-5.86,20.88-16.15,20.88-9.08,0-15.22-7.25-15.37-20.33,0-13.27,6.72-20.58,16.15-20.58s15.37,7.43,15.37,20.03Zm-25.23.61c0,10.29,3.72,16.13,9.43,16.13,6.43,0,9.51-6.39,9.51-16.5s-2.93-16.13-9.43-16.13c-5.5,0-9.51,5.72-9.51,16.5Z"/>
    <path class="cls-1" d="m331.87,332.79v-10.78h-21.58v-3.53l20.73-25.27h6.79v24.6h6.5v4.2h-6.5v10.78h-5.93Zm0-14.98v-13.21c0-2.07.07-4.14.21-6.21h-.21c-1.43,2.31-2.57,4.02-3.86,5.84l-11.36,13.45v.12h15.22Z"/>
  </g>
  <g>
    <path class="cls-1" d="m218.91,380.49l-1.15,3.6h-1.48l3.76-11.46h1.73l3.78,11.46h-1.53l-1.18-3.6h-3.93Zm3.63-1.16l-1.08-3.3c-.25-.75-.41-1.43-.58-2.09h-.03c-.16.68-.35,1.38-.56,2.07l-1.08,3.31h3.34Zm.02-8.63c0,.85-.67,1.51-1.63,1.51-1,0-1.64-.68-1.64-1.5s.62-1.55,1.64-1.55,1.63.68,1.63,1.53Zm-2.43.02c0,.42.31.87.79.87s.79-.41.79-.9-.31-.9-.79-.9c-.51,0-.79.44-.79.94Z"/>
    <path class="cls-1" d="m228.61,372.63v4.79h5.36v-4.79h1.45v11.46h-1.45v-5.37h-5.36v5.37h-1.43v-11.46h1.43Z"/>
    <path class="cls-1" d="m241.39,384.09v-11.46h1.56l3.55,5.8c.82,1.34,1.46,2.55,1.99,3.72l.03-.02c-.13-1.53-.16-2.92-.16-4.71v-4.79h1.35v11.46h-1.45l-3.52-5.81c-.77-1.27-1.51-2.58-2.07-3.82l-.05.02c.08,1.44.12,2.82.12,4.73v4.9h-1.35Z"/>
    <path class="cls-1" d="m257.94,378.72h-4.31v4.13h4.8v1.24h-6.23v-11.46h5.98v1.24h-4.55v3.62h4.31v1.22Z"/>
    <path class="cls-1" d="m262.85,372.63h1.43v7.67c0,3.04-1.45,3.98-3.35,3.98-.53,0-1.17-.12-1.53-.27l.21-1.21c.3.12.72.22,1.2.22,1.28,0,2.04-.6,2.04-2.84v-7.55Z"/>
    <path class="cls-1" d="m266.34,383.22c0-.61.41-1.05.97-1.05.59,0,.97.44.97,1.05s-.38,1.05-.97,1.05-.97-.46-.97-1.05Zm.41-2.43l-.23-8.16h1.58l-.23,8.16h-1.12Z"/>
    <path class="cls-1" d="m275.78,384.09l-3.62-11.46h1.54l1.73,5.64c.48,1.55.89,2.94,1.18,4.28h.03c.31-1.33.77-2.77,1.27-4.27l1.87-5.66h1.53l-3.96,11.46h-1.58Z"/>
    <path class="cls-1" d="m283.82,373.55c.02.51-.35.92-.92.92-.51,0-.87-.41-.87-.92s.38-.93.9-.93.89.41.89.93Zm-1.61,10.54v-8.23h1.45v8.23h-1.45Z"/>
    <path class="cls-1" d="m286.05,378.09c0-.85-.02-1.55-.07-2.23h1.28l.08,1.36h.03c.39-.78,1.31-1.55,2.63-1.55,1.1,0,2.81.68,2.81,3.5v4.91h-1.45v-4.74c0-1.33-.48-2.43-1.84-2.43-.95,0-1.69.7-1.94,1.53-.07.19-.1.44-.1.7v4.95h-1.45v-6Z"/>
    <path class="cls-1" d="m295.98,380.25c.03,2.02,1.28,2.86,2.73,2.86,1.04,0,1.66-.19,2.2-.42l.25,1.07c-.51.24-1.38.51-2.65.51-2.45,0-3.91-1.67-3.91-4.15s1.41-4.44,3.73-4.44c2.6,0,3.29,2.36,3.29,3.88,0,.31-.03.54-.05.7h-5.59Zm4.24-1.07c.02-.95-.38-2.43-2-2.43-1.46,0-2.1,1.39-2.22,2.43h4.22Z"/>
    <path class="cls-1" d="m303.41,378.09c0-.85-.02-1.55-.07-2.23h1.28l.08,1.36h.03c.39-.78,1.32-1.55,2.63-1.55,1.1,0,2.81.68,2.81,3.5v4.91h-1.45v-4.74c0-1.33-.48-2.43-1.84-2.43-.95,0-1.69.7-1.94,1.53-.07.19-.1.44-.1.7v4.95h-1.45v-6Z"/>
    <path class="cls-1" d="m316.83,380.25c.03,2.02,1.28,2.86,2.73,2.86,1.04,0,1.66-.19,2.2-.42l.25,1.07c-.51.24-1.38.51-2.65.51-2.45,0-3.91-1.67-3.91-4.15s1.41-4.44,3.73-4.44c2.6,0,3.29,2.36,3.29,3.88,0,.31-.03.54-.05.7h-5.59Zm4.24-1.07c.02-.95-.38-2.43-2-2.43-1.46,0-2.1,1.39-2.22,2.43h4.22Z"/>
    <path class="cls-1" d="m324.26,378.43c0-.97-.02-1.8-.07-2.57h1.27l.05,1.61h.07c.36-1.1,1.23-1.8,2.2-1.8.16,0,.28.02.41.05v1.41c-.15-.03-.3-.05-.49-.05-1.02,0-1.74.8-1.94,1.92-.03.2-.07.44-.07.7v4.39h-1.43v-5.66Z"/>
    <path class="cls-1" d="m332.92,382.56c.43.29,1.18.59,1.91.59,1.05,0,1.54-.54,1.54-1.22,0-.71-.41-1.1-1.48-1.51-1.43-.53-2.1-1.34-2.1-2.33,0-1.33,1.04-2.41,2.74-2.41.81,0,1.51.24,1.96.51l-.36,1.09c-.31-.2-.89-.48-1.63-.48-.85,0-1.33.51-1.33,1.12,0,.68.48.99,1.51,1.39,1.38.54,2.09,1.26,2.09,2.48,0,1.44-1.08,2.46-2.97,2.46-.87,0-1.68-.22-2.24-.56l.36-1.14Z"/>
    <path class="cls-1" d="m339.63,378.55c0-1.05-.03-1.9-.07-2.69h1.3l.07,1.41h.03c.59-1,1.53-1.6,2.83-1.6,1.92,0,3.37,1.68,3.37,4.18,0,2.96-1.74,4.42-3.62,4.42-1.05,0-1.97-.48-2.45-1.29h-.03v4.47h-1.43v-8.91Zm1.43,2.19c0,.22.03.42.07.61.26,1.04,1.13,1.75,2.17,1.75,1.53,0,2.42-1.29,2.42-3.18,0-1.65-.84-3.06-2.37-3.06-.99,0-1.91.73-2.19,1.85-.05.19-.1.41-.1.61v1.41Z"/>
    <path class="cls-1" d="m350.59,373.55c.02.51-.35.92-.92.92-.51,0-.87-.41-.87-.92s.38-.93.9-.93.89.41.89.93Zm-1.61,10.54v-8.23h1.45v8.23h-1.45Z"/>
    <path class="cls-1" d="m352.83,372.02h1.45v12.07h-1.45v-12.07Z"/>
    <path class="cls-1" d="m363.58,372.02v9.94c0,.73.02,1.56.07,2.12h-1.3l-.07-1.43h-.03c-.44.92-1.41,1.61-2.71,1.61-1.92,0-3.4-1.68-3.4-4.18-.02-2.74,1.63-4.42,3.57-4.42,1.22,0,2.04.59,2.4,1.26h.03v-4.91h1.45Zm-1.45,7.19c0-.19-.02-.44-.07-.63-.21-.95-1-1.73-2.09-1.73-1.5,0-2.38,1.36-2.38,3.18,0,1.67.79,3.04,2.35,3.04.97,0,1.86-.66,2.12-1.78.05-.2.07-.41.07-.65v-1.43Z"/>
    <path class="cls-1" d="m367.72,373.5v2.36h2.07v1.14h-2.07v4.44c0,1.02.28,1.6,1.08,1.6.38,0,.66-.05.84-.1l.07,1.12c-.28.12-.72.2-1.28.2-.67,0-1.22-.22-1.56-.63-.41-.44-.56-1.17-.56-2.14v-4.49h-1.23v-1.14h1.23v-1.97l1.41-.39Z"/>
    <path class="cls-1" d="m371.03,383.21c0-.63.41-1.07.99-1.07s.97.44.97,1.07-.38,1.07-.99,1.07c-.58,0-.97-.46-.97-1.07Z"/>
    <path class="cls-1" d="m374.43,383.21c0-.63.41-1.07.99-1.07s.97.44.97,1.07-.38,1.07-.99,1.07c-.58,0-.97-.46-.97-1.07Z"/>
    <path class="cls-1" d="m377.83,383.21c0-.63.41-1.07.99-1.07s.97.44.97,1.07-.38,1.07-.99,1.07c-.58,0-.97-.46-.97-1.07Z"/>
    <path class="cls-1" d="m152.67,419.86c-.08-1.6-.18-3.52-.16-4.95h-.05c-.38,1.34-.84,2.77-1.4,4.35l-1.96,5.56h-1.08l-1.79-5.46c-.53-1.61-.97-3.09-1.28-4.45h-.03c-.03,1.43-.12,3.35-.21,5.07l-.3,4.91h-1.36l.77-11.46h1.82l1.89,5.54c.46,1.41.84,2.67,1.12,3.86h.05c.28-1.16.67-2.41,1.17-3.86l1.97-5.54h1.82l.69,11.46h-1.4l-.28-5.03Z"/>
    <path class="cls-1" d="m157.41,421.05c.03,2.02,1.28,2.86,2.73,2.86,1.04,0,1.66-.19,2.2-.42l.25,1.07c-.51.24-1.38.51-2.65.51-2.45,0-3.91-1.67-3.91-4.15s1.41-4.44,3.73-4.44c2.6,0,3.29,2.36,3.29,3.88,0,.31-.03.54-.05.7h-5.59Zm4.24-1.07c.02-.95-.38-2.43-2-2.43-1.46,0-2.1,1.39-2.22,2.43h4.22Z"/>
    <path class="cls-1" d="m164.84,418.89c0-.85-.02-1.55-.07-2.23h1.28l.08,1.36h.03c.39-.78,1.31-1.55,2.63-1.55,1.1,0,2.81.68,2.81,3.5v4.91h-1.45v-4.74c0-1.33-.48-2.43-1.84-2.43-.95,0-1.69.7-1.94,1.53-.07.19-.1.44-.1.7v4.95h-1.45v-6Z"/>
    <path class="cls-1" d="m177.38,424.89c.03-.56.07-1.39.07-2.12v-9.94h1.43v5.17h.03c.51-.92,1.43-1.51,2.71-1.51,1.97,0,3.37,1.7,3.35,4.2,0,2.94-1.79,4.4-3.57,4.4-1.15,0-2.07-.46-2.66-1.55h-.05l-.07,1.36h-1.25Zm1.5-3.3c0,.19.03.37.07.54.28,1.04,1.12,1.75,2.17,1.75,1.51,0,2.42-1.27,2.42-3.16,0-1.65-.82-3.06-2.37-3.06-.99,0-1.91.7-2.2,1.84-.03.17-.08.37-.08.61v1.48Z"/>
    <path class="cls-1" d="m187.6,421.05c.03,2.02,1.28,2.86,2.73,2.86,1.04,0,1.66-.19,2.2-.42l.25,1.07c-.51.24-1.38.51-2.65.51-2.45,0-3.91-1.67-3.91-4.15s1.41-4.44,3.73-4.44c2.6,0,3.29,2.36,3.29,3.88,0,.31-.03.54-.05.7h-5.59Zm4.24-1.07c.02-.95-.38-2.43-2-2.43-1.46,0-2.1,1.39-2.22,2.43h4.22Z"/>
    <path class="cls-1" d="m195.59,416.66l1.56,4.62c.26.75.48,1.43.64,2.11h.05c.18-.68.41-1.36.67-2.11l1.54-4.62h1.51l-3.12,8.23h-1.38l-3.02-8.23h1.54Z"/>
    <path class="cls-1" d="m207.28,424.89l-.12-1.04h-.05c-.44.65-1.3,1.22-2.43,1.22-1.61,0-2.43-1.17-2.43-2.36,0-1.99,1.71-3.08,4.78-3.06v-.17c0-.68-.18-1.9-1.81-1.9-.74,0-1.51.24-2.07.61l-.33-.99c.66-.44,1.61-.73,2.61-.73,2.43,0,3.02,1.72,3.02,3.37v3.08c0,.71.03,1.41.13,1.97h-1.31Zm-.21-4.2c-1.58-.03-3.37.26-3.37,1.85,0,.97.62,1.43,1.36,1.43,1.04,0,1.69-.68,1.92-1.38.05-.15.08-.32.08-.48v-1.43Z"/>
    <path class="cls-1" d="m210.8,419.23c0-.97-.02-1.8-.07-2.57h1.27l.05,1.61h.07c.36-1.1,1.23-1.8,2.2-1.8.16,0,.28.02.41.05v1.41c-.15-.03-.3-.05-.49-.05-1.02,0-1.74.8-1.94,1.92-.03.2-.07.44-.07.7v4.39h-1.43v-5.66Z"/>
    <path class="cls-1" d="m219.66,419.23c0-.97-.02-1.8-.07-2.57h1.27l.05,1.61h.07c.36-1.1,1.23-1.8,2.2-1.8.16,0,.28.02.41.05v1.41c-.15-.03-.3-.05-.49-.05-1.02,0-1.74.8-1.94,1.92-.03.2-.07.44-.07.7v4.39h-1.43v-5.66Z"/>
    <path class="cls-1" d="m232.07,420.71c0,3.04-2.04,4.37-3.96,4.37-2.15,0-3.81-1.63-3.81-4.23,0-2.75,1.74-4.37,3.94-4.37s3.83,1.72,3.83,4.23Zm-6.31.08c0,1.8,1,3.16,2.42,3.16s2.42-1.34,2.42-3.2c0-1.39-.67-3.16-2.38-3.16s-2.45,1.63-2.45,3.2Z"/>
    <path class="cls-1" d="m234.7,421.05c.03,2.02,1.28,2.86,2.73,2.86,1.04,0,1.66-.19,2.2-.42l.25,1.07c-.51.24-1.38.51-2.65.51-2.45,0-3.91-1.67-3.91-4.15s1.41-4.44,3.73-4.44c2.6,0,3.29,2.36,3.29,3.88,0,.31-.03.54-.05.7h-5.59Zm4.24-1.07c.02-.95-.38-2.43-2-2.43-1.46,0-2.1,1.39-2.22,2.43h4.22Z"/>
    <path class="cls-1" d="m242.13,418.89c0-.85-.02-1.55-.07-2.23h1.28l.08,1.36h.03c.39-.78,1.31-1.55,2.63-1.55,1.1,0,2.81.68,2.81,3.5v4.91h-1.45v-4.74c0-1.33-.48-2.43-1.84-2.43-.95,0-1.69.7-1.94,1.53-.07.19-.1.44-.1.7v4.95h-1.45v-6Z"/>
    <path class="cls-1" d="m250.32,426.98c.36-1,.81-2.82.99-4.06l1.61-.17c-.38,1.44-1.1,3.33-1.56,4.13l-1.04.1Z"/>
    <path class="cls-1" d="m258.7,416.66l1.56,4.62c.26.75.48,1.43.64,2.11h.05c.18-.68.41-1.36.67-2.11l1.54-4.62h1.51l-3.12,8.23h-1.38l-3.02-8.23h1.54Z"/>
    <path class="cls-1" d="m267.66,414.35c.02.51-.35.92-.92.92-.51,0-.87-.41-.87-.92s.38-.93.9-.93.89.41.89.93Zm-1.61,10.54v-8.23h1.45v8.23h-1.45Z"/>
    <path class="cls-1" d="m273.38,412.82h1.45v5.13h.03c.23-.42.59-.8,1.04-1.05.43-.25.94-.42,1.48-.42,1.07,0,2.78.68,2.78,3.52v4.9h-1.45v-4.73c0-1.33-.48-2.45-1.84-2.45-.94,0-1.68.68-1.94,1.5-.08.2-.1.42-.1.71v4.96h-1.45v-12.07Z"/>
    <path class="cls-1" d="m286.91,424.89l-.12-1.04h-.05c-.44.65-1.3,1.22-2.43,1.22-1.61,0-2.43-1.17-2.43-2.36,0-1.99,1.71-3.08,4.78-3.06v-.17c0-.68-.18-1.9-1.81-1.9-.74,0-1.51.24-2.07.61l-.33-.99c.66-.44,1.61-.73,2.61-.73,2.43,0,3.02,1.72,3.02,3.37v3.08c0,.71.03,1.41.13,1.97h-1.31Zm-.21-4.2c-1.58-.03-3.37.26-3.37,1.85,0,.97.62,1.43,1.36,1.43,1.04,0,1.69-.68,1.92-1.38.05-.15.08-.32.08-.48v-1.43Z"/>
    <path class="cls-1" d="m290.43,419.23c0-.97-.02-1.8-.07-2.57h1.27l.05,1.61h.07c.36-1.1,1.23-1.8,2.2-1.8.16,0,.28.02.41.05v1.41c-.15-.03-.3-.05-.49-.05-1.02,0-1.74.8-1.94,1.92-.03.2-.07.44-.07.7v4.39h-1.43v-5.66Z"/>
    <path class="cls-1" d="m300.1,421.05c.03,2.02,1.28,2.86,2.73,2.86,1.04,0,1.66-.19,2.2-.42l.25,1.07c-.51.24-1.38.51-2.65.51-2.45,0-3.91-1.67-3.91-4.15s1.41-4.44,3.73-4.44c2.6,0,3.29,2.36,3.29,3.88,0,.31-.03.54-.05.7h-5.59Zm4.24-1.07c.02-.95-.38-2.43-2-2.43-1.46,0-2.1,1.39-2.22,2.43h4.22Z"/>
    <path class="cls-1" d="m307.53,418.89c0-.85-.02-1.55-.07-2.23h1.28l.08,1.36h.03c.39-.78,1.31-1.55,2.63-1.55,1.1,0,2.81.68,2.81,3.5v4.91h-1.45v-4.74c0-1.33-.48-2.43-1.84-2.43-.95,0-1.69.7-1.94,1.53-.07.19-.1.44-.1.7v4.95h-1.45v-6Z"/>
    <path class="cls-1" d="m320.14,418.89c0-.85-.02-1.55-.07-2.23h1.27l.07,1.33h.05c.44-.78,1.18-1.51,2.5-1.51,1.08,0,1.91.68,2.25,1.65h.03c.25-.46.56-.82.89-1.07.48-.37,1-.58,1.76-.58,1.05,0,2.61.71,2.61,3.57v4.84h-1.41v-4.66c0-1.58-.56-2.53-1.73-2.53-.82,0-1.46.63-1.71,1.36-.07.2-.12.48-.12.75v5.08h-1.41v-4.93c0-1.31-.56-2.26-1.66-2.26-.9,0-1.56.75-1.79,1.5-.08.22-.12.48-.12.73v4.96h-1.41v-6Z"/>
    <path class="cls-1" d="m338.25,424.89l-.12-1.04h-.05c-.44.65-1.3,1.22-2.43,1.22-1.61,0-2.43-1.17-2.43-2.36,0-1.99,1.71-3.08,4.78-3.06v-.17c0-.68-.18-1.9-1.81-1.9-.74,0-1.51.24-2.07.61l-.33-.99c.66-.44,1.61-.73,2.61-.73,2.43,0,3.02,1.72,3.02,3.37v3.08c0,.71.03,1.41.13,1.97h-1.31Zm-.21-4.2c-1.58-.03-3.37.26-3.37,1.85,0,.97.62,1.43,1.36,1.43,1.04,0,1.69-.68,1.92-1.38.05-.15.08-.32.08-.48v-1.43Z"/>
    <path class="cls-1" d="m341.58,423.36c.43.29,1.18.59,1.91.59,1.05,0,1.54-.54,1.54-1.22,0-.71-.41-1.1-1.48-1.51-1.43-.53-2.1-1.34-2.1-2.33,0-1.33,1.04-2.41,2.74-2.41.81,0,1.51.24,1.96.51l-.36,1.09c-.31-.2-.89-.48-1.63-.48-.85,0-1.33.51-1.33,1.12,0,.68.48.99,1.51,1.39,1.38.54,2.09,1.26,2.09,2.48,0,1.44-1.08,2.46-2.97,2.46-.87,0-1.68-.22-2.23-.56l.36-1.14Z"/>
    <path class="cls-1" d="m348.09,423.36c.43.29,1.18.59,1.91.59,1.05,0,1.54-.54,1.54-1.22,0-.71-.41-1.1-1.48-1.51-1.43-.53-2.1-1.34-2.1-2.33,0-1.33,1.04-2.41,2.74-2.41.81,0,1.51.24,1.96.51l-.36,1.09c-.31-.2-.89-.48-1.63-.48-.85,0-1.33.51-1.33,1.12,0,.68.48.99,1.51,1.39,1.38.54,2.09,1.26,2.09,2.48,0,1.44-1.08,2.46-2.97,2.46-.87,0-1.68-.22-2.24-.56l.36-1.14Z"/>
    <path class="cls-1" d="m355.6,421.05c.03,2.02,1.28,2.86,2.73,2.86,1.04,0,1.66-.19,2.2-.42l.25,1.07c-.51.24-1.38.51-2.65.51-2.45,0-3.91-1.67-3.91-4.15s1.41-4.44,3.73-4.44c2.6,0,3.29,2.36,3.29,3.88,0,.31-.03.54-.05.7h-5.59Zm4.24-1.07c.02-.95-.38-2.43-2-2.43-1.46,0-2.1,1.39-2.22,2.43h4.22Z"/>
    <path class="cls-1" d="m370.92,424.89l-.12-1.04h-.05c-.44.65-1.3,1.22-2.43,1.22-1.61,0-2.43-1.17-2.43-2.36,0-1.99,1.71-3.08,4.78-3.06v-.17c0-.68-.18-1.9-1.81-1.9-.74,0-1.51.24-2.07.61l-.33-.99c.66-.44,1.61-.73,2.61-.73,2.43,0,3.02,1.72,3.02,3.37v3.08c0,.71.03,1.41.13,1.97h-1.31Zm-.21-4.2c-1.58-.03-3.37.26-3.37,1.85,0,.97.62,1.43,1.36,1.43,1.04,0,1.69-.68,1.92-1.38.05-.15.08-.32.08-.48v-1.43Z"/>
    <path class="cls-1" d="m374.44,418.89c0-.85-.02-1.55-.07-2.23h1.28l.08,1.36h.03c.39-.78,1.31-1.55,2.63-1.55,1.1,0,2.81.68,2.81,3.5v4.91h-1.45v-4.74c0-1.33-.48-2.43-1.84-2.43-.95,0-1.69.7-1.94,1.53-.07.19-.1.44-.1.7v4.95h-1.45v-6Z"/>
    <path class="cls-1" d="m390.43,412.82v9.94c0,.73.02,1.56.07,2.12h-1.3l-.07-1.43h-.03c-.44.92-1.41,1.61-2.71,1.61-1.92,0-3.4-1.68-3.4-4.18-.02-2.74,1.63-4.42,3.57-4.42,1.22,0,2.04.59,2.4,1.26h.03v-4.91h1.45Zm-1.45,7.19c0-.19-.02-.44-.07-.63-.21-.95-1-1.73-2.09-1.73-1.5,0-2.38,1.36-2.38,3.18,0,1.67.79,3.04,2.35,3.04.97,0,1.86-.66,2.12-1.78.05-.2.07-.41.07-.65v-1.43Z"/>
    <path class="cls-1" d="m392.83,419.23c0-.97-.02-1.8-.07-2.57h1.27l.05,1.61h.07c.36-1.1,1.23-1.8,2.2-1.8.17,0,.28.02.41.05v1.41c-.15-.03-.3-.05-.49-.05-1.02,0-1.74.8-1.94,1.92-.03.2-.07.44-.07.7v4.39h-1.43v-5.66Z"/>
    <path class="cls-1" d="m398.85,421.05c.03,2.02,1.28,2.86,2.73,2.86,1.04,0,1.66-.19,2.2-.42l.25,1.07c-.51.24-1.38.51-2.65.51-2.45,0-3.91-1.67-3.91-4.15s1.41-4.44,3.73-4.44c2.6,0,3.29,2.36,3.29,3.88,0,.31-.03.54-.05.7h-5.59Zm4.24-1.07c.02-.95-.38-2.43-2-2.43-1.46,0-2.1,1.39-2.22,2.43h4.22Z"/>
    <path class="cls-1" d="m411.51,414.3v2.36h2.07v1.14h-2.07v4.44c0,1.02.28,1.6,1.08,1.6.38,0,.66-.05.84-.1l.07,1.12c-.28.12-.72.2-1.28.2-.67,0-1.22-.22-1.56-.63-.41-.44-.56-1.17-.56-2.14v-4.49h-1.23v-1.14h1.23v-1.97l1.41-.39Z"/>
    <path class="cls-1" d="m416.82,414.35c.02.51-.34.92-.92.92-.51,0-.87-.41-.87-.92s.38-.93.9-.93.89.41.89.93Zm-1.61,10.54v-8.23h1.45v8.23h-1.45Z"/>
    <path class="cls-1" d="m419.05,412.82h1.45v12.07h-1.45v-12.07Z"/>
    <path class="cls-1" d="m433.29,412.82v9.94c0,.73.02,1.56.07,2.12h-1.3l-.07-1.43h-.03c-.44.92-1.41,1.61-2.71,1.61-1.92,0-3.4-1.68-3.4-4.18-.02-2.74,1.63-4.42,3.57-4.42,1.22,0,2.04.59,2.4,1.26h.03v-4.91h1.45Zm-1.45,7.19c0-.19-.02-.44-.07-.63-.21-.95-1-1.73-2.09-1.73-1.5,0-2.38,1.36-2.38,3.18,0,1.67.79,3.04,2.35,3.04.97,0,1.86-.66,2.12-1.78.05-.2.07-.41.07-.65v-1.43Z"/>
    <path class="cls-1" d="m437.3,414.35c.02.51-.34.92-.92.92-.51,0-.87-.41-.87-.92s.38-.93.9-.93.89.41.89.93Zm-1.61,10.54v-8.23h1.45v8.23h-1.45Z"/>
    <path class="cls-1" d="m446.39,416.66c-.03.59-.07,1.26-.07,2.26v4.78c0,1.89-.36,3.04-1.13,3.76-.77.75-1.89.99-2.89.99s-2-.24-2.65-.68l.36-1.14c.53.34,1.35.65,2.33.65,1.48,0,2.56-.8,2.56-2.87v-.92h-.03c-.44.76-1.3,1.38-2.53,1.38-1.97,0-3.39-1.73-3.39-4.01,0-2.79,1.76-4.37,3.58-4.37,1.38,0,2.14.75,2.48,1.43h.03l.07-1.24h1.27Zm-1.5,3.25c0-.25-.02-.48-.08-.68-.26-.87-.97-1.58-2.02-1.58-1.38,0-2.37,1.21-2.37,3.11,0,1.61.79,2.96,2.35,2.96.89,0,1.69-.58,2-1.53.08-.25.12-.54.12-.8v-1.48Z"/>
    <path class="cls-1" d="m448.14,424.01c0-.63.41-1.07.99-1.07s.97.44.97,1.07-.38,1.07-.99,1.07c-.58,0-.97-.46-.97-1.07Z"/>
    <path class="cls-1" d="m213.63,455.49h-3.37v-1.26h8.2v1.26h-3.39v10.2h-1.45v-10.2Z"/>
    <path class="cls-1" d="m218.91,460.03c0-.97-.02-1.8-.07-2.57h1.27l.05,1.61h.07c.36-1.1,1.23-1.8,2.2-1.8.16,0,.28.02.41.05v1.41c-.15-.03-.3-.05-.49-.05-1.02,0-1.74.8-1.94,1.92-.03.2-.07.44-.07.7v4.39h-1.43v-5.66Z"/>
    <path class="cls-1" d="m225.22,457.46l1.74,4.86c.18.54.38,1.19.51,1.68h.03c.15-.49.31-1.12.51-1.72l1.58-4.83h1.53l-2.17,5.86c-1.04,2.82-1.74,4.27-2.73,5.15-.71.65-1.41.9-1.77.97l-.36-1.26c.36-.12.84-.36,1.27-.73.39-.32.89-.9,1.22-1.67.07-.15.11-.27.11-.36s-.03-.2-.1-.39l-2.94-7.58h1.58Z"/>
    <path class="cls-1" d="m233.86,461.24h.03c.2-.29.48-.65.71-.94l2.33-2.84h1.74l-3.07,3.38,3.5,4.84h-1.76l-2.74-3.94-.74.85v3.09h-1.43v-12.07h1.43v7.62Z"/>
    <path class="cls-1" d="m243.63,453.62h1.45v5.13h.03c.23-.43.59-.8,1.04-1.05.43-.25.94-.42,1.48-.42,1.07,0,2.78.68,2.78,3.52v4.9h-1.45v-4.73c0-1.33-.48-2.45-1.84-2.45-.94,0-1.68.68-1.94,1.5-.08.2-.1.42-.1.71v4.96h-1.45v-12.07Z"/>
    <path class="cls-1" d="m253.56,461.85c.03,2.02,1.28,2.86,2.73,2.86,1.04,0,1.66-.19,2.2-.42l.25,1.07c-.51.24-1.38.51-2.65.51-2.45,0-3.91-1.67-3.91-4.15s1.41-4.44,3.73-4.44c2.6,0,3.29,2.36,3.29,3.88,0,.31-.03.54-.05.7h-5.59Zm4.24-1.07c.02-.95-.38-2.43-2-2.43-1.46,0-2.1,1.39-2.22,2.43h4.22Z"/>
    <path class="cls-1" d="m260.99,460.03c0-.97-.02-1.8-.07-2.57h1.27l.05,1.61h.07c.36-1.1,1.23-1.8,2.2-1.8.16,0,.28.02.41.05v1.41c-.15-.03-.3-.05-.49-.05-1.02,0-1.74.8-1.94,1.92-.03.2-.07.44-.07.7v4.39h-1.43v-5.66Z"/>
    <path class="cls-1" d="m270,465.69v-7.09h-1.12v-1.14h1.12v-.39c0-1.16.25-2.21.92-2.87.54-.54,1.27-.77,1.94-.77.51,0,.95.12,1.23.24l-.2,1.16c-.21-.1-.51-.19-.92-.19-1.23,0-1.54,1.12-1.54,2.38v.44h1.92v1.14h-1.92v7.09h-1.43Z"/>
    <path class="cls-1" d="m281.64,461.51c0,3.04-2.04,4.37-3.96,4.37-2.15,0-3.81-1.63-3.81-4.23,0-2.75,1.74-4.37,3.94-4.37s3.83,1.72,3.83,4.23Zm-6.31.08c0,1.8,1,3.16,2.42,3.16s2.42-1.34,2.42-3.2c0-1.39-.67-3.16-2.38-3.16s-2.45,1.63-2.45,3.2Z"/>
    <path class="cls-1" d="m283.46,460.03c0-.97-.02-1.8-.07-2.57h1.27l.05,1.61h.07c.36-1.1,1.23-1.8,2.2-1.8.16,0,.28.02.41.05v1.41c-.15-.03-.3-.05-.49-.05-1.02,0-1.74.8-1.94,1.92-.03.2-.07.44-.07.7v4.39h-1.43v-5.66Z"/>
    <path class="cls-1" d="m296.73,465.69l-.12-1.04h-.05c-.44.65-1.3,1.22-2.43,1.22-1.61,0-2.43-1.17-2.43-2.36,0-1.99,1.71-3.08,4.78-3.06v-.17c0-.68-.18-1.9-1.81-1.9-.74,0-1.51.24-2.07.61l-.33-.99c.66-.44,1.61-.73,2.61-.73,2.43,0,3.02,1.72,3.02,3.37v3.08c0,.71.03,1.41.13,1.97h-1.31Zm-.21-4.2c-1.58-.03-3.37.25-3.37,1.85,0,.97.62,1.43,1.36,1.43,1.04,0,1.69-.68,1.92-1.38.05-.15.08-.32.08-.48v-1.43Z"/>
    <path class="cls-1" d="m301.92,455.1v2.36h2.07v1.14h-2.07v4.44c0,1.02.28,1.6,1.08,1.6.38,0,.66-.05.84-.1l.07,1.12c-.28.12-.72.2-1.28.2-.67,0-1.22-.22-1.56-.63-.41-.44-.56-1.17-.56-2.14v-4.49h-1.23v-1.14h1.23v-1.97l1.41-.39Z"/>
    <path class="cls-1" d="m310.54,461.24h.03c.2-.29.48-.65.71-.94l2.33-2.84h1.74l-3.07,3.38,3.5,4.84h-1.76l-2.74-3.94-.74.85v3.09h-1.43v-12.07h1.43v7.62Z"/>
    <path class="cls-1" d="m322.18,457.87l.69-1.02.64.46-.69,1.05c.77.76,1.2,1.87,1.2,3.14,0,3.03-2.02,4.37-3.88,4.37-.74,0-1.46-.19-2.04-.58l-.71,1.04-.61-.51.69-1.02c-.77-.75-1.23-1.84-1.23-3.18,0-2.74,1.74-4.35,3.91-4.35.72,0,1.43.2,2.02.59Zm-.66,1.02c-.36-.31-.82-.49-1.4-.49-1.78,0-2.48,1.7-2.48,3.2,0,.71.18,1.46.59,2.06l.03.02,3.25-4.78Zm-2.76,5.39c.38.34.84.48,1.33.48,1.51,0,2.51-1.34,2.51-3.2,0-.56-.13-1.36-.56-2.01h-.03l-3.25,4.73Z"/>
    <path class="cls-1" d="m325.78,465.69c.03-.56.07-1.39.07-2.12v-9.94h1.43v5.17h.03c.51-.92,1.43-1.51,2.71-1.51,1.97,0,3.37,1.7,3.35,4.2,0,2.94-1.79,4.4-3.57,4.4-1.15,0-2.07-.46-2.66-1.55h-.05l-.07,1.36h-1.25Zm1.5-3.3c0,.19.03.37.07.54.28,1.04,1.12,1.75,2.17,1.75,1.51,0,2.42-1.27,2.42-3.16,0-1.65-.82-3.06-2.37-3.06-.99,0-1.91.7-2.2,1.84-.03.17-.08.37-.08.61v1.48Z"/>
    <path class="cls-1" d="m336,461.85c.03,2.02,1.28,2.86,2.73,2.86,1.04,0,1.66-.19,2.2-.42l.25,1.07c-.51.24-1.38.51-2.65.51-2.45,0-3.91-1.67-3.91-4.15s1.41-4.44,3.73-4.44c2.6,0,3.29,2.36,3.29,3.88,0,.31-.03.54-.05.7h-5.59Zm4.24-1.07c.02-.95-.38-2.43-2-2.43-1.46,0-2.1,1.39-2.22,2.43h4.22Z"/>
    <path class="cls-1" d="m347.72,461.85c.03,2.02,1.28,2.86,2.73,2.86,1.04,0,1.66-.19,2.2-.42l.25,1.07c-.51.24-1.38.51-2.65.51-2.45,0-3.91-1.67-3.91-4.15s1.41-4.44,3.73-4.44c2.6,0,3.29,2.36,3.29,3.88,0,.31-.03.54-.05.7h-5.59Zm4.24-1.07c.02-.95-.38-2.43-2-2.43-1.46,0-2.1,1.39-2.22,2.43h4.22Z"/>
    <path class="cls-1" d="m355.16,459.69c0-.85-.02-1.55-.07-2.23h1.28l.08,1.36h.03c.39-.78,1.31-1.55,2.63-1.55,1.1,0,2.81.68,2.81,3.5v4.91h-1.45v-4.74c0-1.33-.48-2.43-1.84-2.43-.95,0-1.69.7-1.94,1.53-.07.19-.1.44-.1.7v4.95h-1.45v-6Z"/>
    <path class="cls-1" d="m367.76,459.69c0-.85-.02-1.55-.07-2.23h1.28l.08,1.36h.03c.39-.78,1.32-1.55,2.63-1.55,1.1,0,2.81.68,2.81,3.5v4.91h-1.45v-4.74c0-1.33-.48-2.43-1.84-2.43-.95,0-1.69.7-1.94,1.53-.07.19-.1.44-.1.7v4.95h-1.45v-6Z"/>
    <path class="cls-1" d="m377.2,457.46l1.74,4.86c.18.54.38,1.19.51,1.68h.03c.15-.49.31-1.12.51-1.72l1.58-4.83h1.53l-2.17,5.86c-1.04,2.82-1.74,4.27-2.73,5.15-.71.65-1.41.9-1.78.97l-.36-1.26c.36-.12.84-.36,1.27-.73.39-.32.89-.9,1.22-1.67.07-.15.12-.27.12-.36s-.03-.2-.1-.39l-2.94-7.58h1.58Z"/>
    <path class="cls-1" d="m383.43,464.81c0-.63.41-1.07.99-1.07s.97.44.97,1.07-.38,1.07-.99,1.07c-.58,0-.97-.46-.97-1.07Z"/>
  </g>
</svg>