<?xml version="1.0" encoding="utf-8"?>
<!-- Generator: Adobe Illustrator 27.0.1, SVG Export Plug-In . SVG Version: 6.00 Build 0)  -->
<svg version="1.1" id="Lag_1" xmlns="http://www.w3.org/2000/svg" xmlns:xlink="http://www.w3.org/1999/xlink" x="0px" y="0px"
	 viewBox="0 0 579 579" style="enable-background:new 0 0 579 579;" xml:space="preserve">
<style type="text/css">
	.st0{fill:#D8D8D7;}
	.st1{clip-path:url(#SVGID_00000041975506879384225070000012345207897972278947_);fill:#D8D8D7;}
	.st2{clip-path:url(#SVGID_00000041975506879384225070000012345207897972278947_);fill:#6F6F6E;}
	.st3{fill:#747473;}
	
		.st4{clip-path:url(#SVGID_00000137119144380855633260000015283154615080421274_);fill:none;stroke:#3C3C3B;stroke-width:3;stroke-miterlimit:10;}
	.st5{clip-path:url(#SVGID_00000137119144380855633260000015283154615080421274_);fill:#3C3C3B;}
	.st6{fill:#FDF0ED;}
	.st7{clip-path:url(#SVGID_00000093873235731456318880000003963426701781461142_);fill:#FDF0ED;}
	.st8{clip-path:url(#SVGID_00000093873235731456318880000003963426701781461142_);fill:#F9D1C9;}
	.st9{fill:#F9DA9E;}
	
		.st10{clip-path:url(#SVGID_00000128465248670712410870000010427465916237111948_);fill:none;stroke:#1D1D1B;stroke-width:3;stroke-miterlimit:10;}
	.st11{clip-path:url(#SVGID_00000128465248670712410870000010427465916237111948_);fill:#F8C680;}
	.st12{fill:#3C3C3B;}
	.st13{clip-path:url(#SVGID_00000134239599902055197560000007743686287667922346_);fill:#3C3C3B;}
	.st14{fill:#E84A4D;}
	.st15{fill:#F9D1C9;}
	.st16{clip-path:url(#SVGID_00000168089467533929721050000000145200806550468780_);fill:#D43740;}
	.st17{clip-path:url(#SVGID_00000030452460114752772300000006874187213118012289_);fill:#3C3C3B;}
	.st18{clip-path:url(#SVGID_00000027568379833247005560000010100924372451771579_);fill:#F8C680;}
	.st19{fill:#F8C680;}
	.st20{clip-path:url(#SVGID_00000042730815770657916910000011829128804305098651_);fill:#3C3C3B;}
	.st21{clip-path:url(#SVGID_00000030476631778661157820000005144838197624124581_);fill:#3C3C3B;}
	.st22{fill:#24B19D;}
	.st23{clip-path:url(#SVGID_00000067230134333134286580000010318659827300065719_);fill:#00A28F;}
	.st24{clip-path:url(#SVGID_00000181051968044368494120000001392843505058970266_);fill:#00A28F;}
	.st25{fill-rule:evenodd;clip-rule:evenodd;fill:#3C3C3B;}
	.st26{fill-rule:evenodd;clip-rule:evenodd;fill:#747473;}
	
		.st27{clip-path:url(#SVGID_00000003802283635290359690000016348071564722977410_);fill-rule:evenodd;clip-rule:evenodd;fill:#3C3C3B;}
	.st28{fill-rule:evenodd;clip-rule:evenodd;fill:#E84A4C;}
	.st29{fill-rule:evenodd;clip-rule:evenodd;fill:#F9DA9E;}
	.st30{fill-rule:evenodd;clip-rule:evenodd;fill:#F8C680;}
	
		.st31{clip-path:url(#SVGID_00000036232453974095664590000005127270421911007423_);fill-rule:evenodd;clip-rule:evenodd;fill:#F8C680;}
	.st32{fill:#E20613;}
</style>
<g>
	<path class="st3" d="M301.1,541.4c0,0-50.9,59.6-94,23.4c0,0-30.6-65.9,62.9-97.3c0,0-103-73.7-107.9-219.1
		c0,0,9.6-185.5,139.7-246.6h0.8c130.1,61.1,137.4,246.4,137.4,246.4C435,393.6,332,467.4,332,467.4c93.5,31.4,62.9,97.3,62.9,97.3
		c-43.1,36.1-94-23.4-94-23.4"/>
	<g>
		<defs>
			<path id="SVGID_00000119798963722861537210000015035881014604067484_" d="M226.1,575c0,0,179.4-226.5,182.1-354.8
				s-72.1-198-72.1-198h150.5L549,298.5l18.3,352.1l-384.7,48.6L226.1,575z"/>
		</defs>
		<clipPath id="SVGID_00000153707605193893347490000004032547633513534370_">
			<use xlink:href="#SVGID_00000119798963722861537210000015035881014604067484_"  style="overflow:visible;"/>
		</clipPath>
		<path style="clip-path:url(#SVGID_00000153707605193893347490000004032547633513534370_);fill:#3C3C3B;" d="M301.1,541.4
			c0,0-50.9,59.6-94,23.4c0,0-30.6-65.9,62.9-97.3c0,0-103-73.7-107.9-219.1c0,0,9.6-185.5,139.7-246.6h0.8
			c130.1,61.1,137.4,246.4,137.4,246.4C435,393.6,332,467.4,332,467.4c93.5,31.4,62.9,97.3,62.9,97.3c-43.1,36.1-94-23.4-94-23.4"/>
	</g>
	<g>
		<path class="st12" d="M433.8,277c1.5-7,2.3-14,2.2-21.1c1.1-1.8,0.3-3.8,0.5-5.7c0.1-1-0.4-2.3,0.8-2.8c1.1-0.4,2,0.5,2.7,1.3
			c2.9,3.5,5.8,7.1,8.2,11c7,11.6,11.5,24.1,13.3,37.5c1.3,9.1,2,9.6,10.3,8.4c-2.4,9.9-9.4,15.7-19.5,15.9c-9.5,0.2-19,0.3-28-3.3
			c3-11.8,7-23.4,8.9-35.5C433.5,280.8,433.8,279,433.8,277z"/>
		<path class="st12" d="M471.8,305.7c-6.3,4.3-10.7,2.3-11.5-5.5c-1.9-19.7-9.6-36.9-22.6-52.2c-1.8,2.5,0.5,5.8-1.8,7.9
			c0.2-13.1,0.6-26.2-1.1-39.2c20.3,15,32.1,35.4,36.6,59.9C473.2,286.2,474.4,296,471.8,305.7z"/>
	</g>
	<g>
		<path class="st3" d="M167.9,277c-1.5-7-2.3-14-2.2-21.1c-1.1-1.8-0.3-3.8-0.5-5.7c-0.1-1,0.4-2.3-0.8-2.8c-1.1-0.4-2,0.5-2.7,1.3
			c-2.9,3.5-5.8,7.1-8.2,11c-7,11.6-11.5,24.1-13.3,37.5c-1.3,9.1-2,9.6-10.3,8.4c2.4,9.9,9.4,15.7,19.5,15.9c9.5,0.2,19,0.3,28-3.3
			c-3-11.8-7-23.4-8.9-35.5C168.2,280.8,167.9,279,167.9,277z"/>
		<path class="st3" d="M129.9,305.7c6.3,4.3,10.7,2.3,11.5-5.5c1.9-19.7,9.6-36.9,22.6-52.2c1.8,2.5-0.5,5.8,1.8,7.9
			c-0.2-13.1-0.6-26.2,1.1-39.2c-20.3,15-32.1,35.4-36.6,59.9C128.5,286.2,127.3,296,129.9,305.7z"/>
	</g>
</g>
</svg>
