<?xml version="1.0" encoding="utf-8"?>
<!-- Generator: Adobe Illustrator 27.0.1, SVG Export Plug-In . SVG Version: 6.00 Build 0)  -->
<svg version="1.1" id="Lag_1" xmlns="http://www.w3.org/2000/svg" xmlns:xlink="http://www.w3.org/1999/xlink" x="0px" y="0px"
	 viewBox="0 0 579 579" style="enable-background:new 0 0 579 579;" xml:space="preserve">
<style type="text/css">
	.st0{fill:#D8D8D7;}
	.st1{clip-path:url(#SVGID_00000177454025513365023030000011156117518900531333_);fill:#D8D8D7;}
	.st2{clip-path:url(#SVGID_00000177454025513365023030000011156117518900531333_);fill:#6F6F6E;}
	.st3{fill:#747473;}
	
		.st4{clip-path:url(#SVGID_00000129912119295590113910000008548584970273028239_);fill:none;stroke:#3C3C3B;stroke-width:3;stroke-miterlimit:10;}
	.st5{clip-path:url(#SVGID_00000129912119295590113910000008548584970273028239_);fill:#3C3C3B;}
	.st6{fill:#FDF0ED;}
	.st7{clip-path:url(#SVGID_00000016059022512059094120000017844691554256795837_);fill:#FDF0ED;}
	.st8{clip-path:url(#SVGID_00000016059022512059094120000017844691554256795837_);fill:#F9D1C9;}
	.st9{fill:#F9DA9E;}
	
		.st10{clip-path:url(#SVGID_00000072977123841670694100000006474523642782424245_);fill:none;stroke:#1D1D1B;stroke-width:3;stroke-miterlimit:10;}
	.st11{clip-path:url(#SVGID_00000072977123841670694100000006474523642782424245_);fill:#F8C680;}
	.st12{fill:#3C3C3B;}
	.st13{clip-path:url(#SVGID_00000101091554572154934890000010416327231969897363_);fill:#3C3C3B;}
	.st14{fill:#E84A4D;}
	.st15{fill:#F9D1C9;}
	.st16{clip-path:url(#SVGID_00000136406988278369032010000001723672551013061251_);fill:#D43740;}
	.st17{clip-path:url(#SVGID_00000132793648006768604980000004088854116213262527_);fill:#3C3C3B;}
	.st18{clip-path:url(#SVGID_00000162346281348467684690000012399558656632152747_);fill:#F8C680;}
	.st19{fill:#F8C680;}
	.st20{clip-path:url(#SVGID_00000134245493554823146380000002224501542897621657_);fill:#3C3C3B;}
	.st21{clip-path:url(#SVGID_00000017517534502635843450000017822346098514939781_);fill:#3C3C3B;}
	.st22{fill:#24B19D;}
	.st23{clip-path:url(#SVGID_00000095306091361094782990000004979088794829147031_);fill:#00A28F;}
	.st24{clip-path:url(#SVGID_00000129204623064800166880000003285370211019970953_);fill:#00A28F;}
	.st25{fill-rule:evenodd;clip-rule:evenodd;fill:#3C3C3B;}
	.st26{fill-rule:evenodd;clip-rule:evenodd;fill:#747473;}
	
		.st27{clip-path:url(#SVGID_00000015316248363167467210000008696705774416464516_);fill-rule:evenodd;clip-rule:evenodd;fill:#3C3C3B;}
	.st28{fill-rule:evenodd;clip-rule:evenodd;fill:#E84A4C;}
	.st29{fill-rule:evenodd;clip-rule:evenodd;fill:#F9DA9E;}
	.st30{fill-rule:evenodd;clip-rule:evenodd;fill:#F8C680;}
	
		.st31{clip-path:url(#SVGID_00000110468624429957773130000014664125407793677752_);fill-rule:evenodd;clip-rule:evenodd;fill:#F8C680;}
	.st32{fill:#E20613;}
</style>
<g>
	<path class="st9" d="M286.6,541.4c0,0-50.9,59.6-94,23.4c0,0-30.6-65.9,62.9-97.3c0,0-103-73.7-107.9-219.1
		c0,0,9.6-185.5,139.7-246.6h0.8c130.1,61.1,137.4,246.4,137.4,246.4c-4.9,145.4-107.9,219.1-107.9,219.1
		c93.5,31.4,62.9,97.3,62.9,97.3c-43.1,36.1-94-23.4-94-23.4"/>
	<g>
		<defs>
			<path id="SVGID_00000022533288765055342910000000637600891366339757_" d="M211.6,575c0,0,179.4-226.5,182.1-354.8
				c2.7-128.3-72.1-198-72.1-198H472l62.5,276.4l18.3,352.1l-384.7,48.6L211.6,575z"/>
		</defs>
		<clipPath id="SVGID_00000180356264769272335160000014980748017454651550_">
			<use xlink:href="#SVGID_00000022533288765055342910000000637600891366339757_"  style="overflow:visible;"/>
		</clipPath>
		<path style="clip-path:url(#SVGID_00000180356264769272335160000014980748017454651550_);fill:#F8C680;" d="M286.6,541.4
			c0,0-50.9,59.6-94,23.4c0,0-30.6-65.9,62.9-97.3c0,0-103-73.7-107.9-219.1c0,0,9.6-185.5,139.7-246.6h0.8
			c130.1,61.1,137.4,246.4,137.4,246.4c-4.9,145.4-107.9,219.1-107.9,219.1c93.5,31.4,62.9,97.3,62.9,97.3
			c-43.1,36.1-94-23.4-94-23.4"/>
	</g>
	<g>
		<path class="st19" d="M419.3,277c1.5-7,2.3-14,2.2-21.1c1.1-1.8,0.3-3.8,0.5-5.7c0.1-1-0.4-2.3,0.8-2.8c1.1-0.4,2,0.5,2.7,1.3
			c2.9,3.5,5.8,7.1,8.2,11c7,11.6,11.5,24.1,13.3,37.5c1.3,9.1,2,9.6,10.3,8.4c-2.4,9.9-9.4,15.7-19.5,15.9c-9.5,0.2-19,0.3-28-3.3
			c3-11.8,7-23.4,8.9-35.5C419,280.8,419.2,279,419.3,277z"/>
		<path class="st19" d="M457.3,305.7c-6.3,4.3-10.7,2.3-11.5-5.5c-1.9-19.7-9.6-36.9-22.6-52.2c-1.8,2.5,0.5,5.8-1.8,7.9
			c0.2-13.1,0.6-26.2-1.1-39.2c20.3,15,32.1,35.4,36.6,59.9C458.7,286.2,459.9,296,457.3,305.7z"/>
	</g>
	<g>
		<path class="st9" d="M153.4,277c-1.5-7-2.3-14-2.2-21.1c-1.1-1.8-0.3-3.8-0.5-5.7c-0.1-1,0.4-2.3-0.8-2.8c-1.1-0.4-2,0.5-2.7,1.3
			c-2.9,3.5-5.8,7.1-8.2,11c-7,11.6-11.5,24.1-13.3,37.5c-1.3,9.1-2,9.6-10.3,8.4c2.4,9.9,9.4,15.7,19.5,15.9c9.5,0.2,19,0.3,28-3.3
			c-3-11.8-7-23.4-8.9-35.5C153.7,280.8,153.4,279,153.4,277z"/>
		<path class="st9" d="M115.4,305.7c6.3,4.3,10.7,2.3,11.5-5.5c1.9-19.7,9.6-36.9,22.6-52.2c1.8,2.5-0.5,5.8,1.8,7.9
			c-0.2-13.1-0.6-26.2,1.1-39.2c-20.3,15-32.1,35.4-36.6,59.9C114,286.2,112.8,296,115.4,305.7z"/>
	</g>
</g>
</svg>
