<svg width="546" height="520" viewBox="0 0 546 520" fill="none" xmlns="http://www.w3.org/2000/svg">
<g clip-path="url(#clip0_494_10)">
<path opacity="0.83" d="M232.17 47.87H232.59H241.02V54.04H255.99V47.87L357.91 47.36L405.85 14.98L545.65 13.61V0L407.81 0.82L358.88 33.2L256.15 34.21V29.15H241.47H239.51V33.2H234.62V36.23H232.66L232.17 47.87Z" fill="white"/>
<path opacity="0.77" d="M450.86 13.9707L402.92 15.9907L357.07 46.8607H257.01L256.15 54.4407H238.53L237.91 46.8607H232.17V72.5707L240.98 72.1507V76.2407L255.66 76.2007V72.1507H355.46L403.41 105.541L408.3 107.561L450.37 107.061L450.86 13.9707Z" fill="#3F1C16"/>
<path opacity="0.84" d="M447.95 106V13.5195L545.65 13.9695V107.56L447.44 107.06" fill="#7B170F"/>
<path opacity="0.26" d="M542.71 116.14H388.21L352.52 102.51H254.67L249.78 105.54H239.02V102.51H232.22V97.3198H227.18L227.28 92.3898L232.17 89.3498V85.2998H240.34H253.12L252.72 88.3398L351.83 85.2998L365.86 80.7598L406.34 107.56H542.71" fill="#13110C"/>
<path d="M376.01 517.86C374.74 510.93 372.14 501 366.23 490.54C356.36 473.09 342.73 463.83 328.07 454.11C297.47 433.83 278.17 423.76 278.17 423.76C275.02 422.12 267.3 418.16 263.49 409.59C262.7 407.82 260.23 401.69 261.53 395.42C263.7 384.94 274.68 382.52 296.76 369.11C313.18 359.14 323.54 352.7 331.01 340.78C335.46 333.67 341.48 324.71 339.82 314.47C337.77 301.85 325.38 294.76 300.68 281.08C281.95 270.71 275.12 269.44 257.63 259.83C242.04 251.27 230.33 249.32 223.38 237.57C221.77 234.85 218.16 228.55 218.49 220.37C218.94 209.19 226.51 200.55 232.19 194.06C239.17 186.09 243.43 184.63 246.87 176.86C248.77 172.55 250.77 168.03 249.81 163.71C245.01 142.17 167.52 129.81 157.83 129.31C156.98 129.27 153.96 129.18 152.94 127.29C151.59 124.79 154.57 120.66 154.9 120.21C159.6 113.82 170.71 115.14 179.36 115.15C182.66 115.15 220.23 114.87 228.28 97.9501C230.74 92.7701 227.86 91.4601 231.22 71.6401C231.75 68.5301 232.55 64.2001 231.22 63.5501C229.92 62.9101 227.02 66.0001 225.35 68.6101C220.51 76.1901 224.26 82.5301 222.41 87.8301C218.21 99.8801 189.05 95.0301 157.83 103.01C138.34 107.99 125.71 108.81 121.63 118.19C121.22 119.13 118.65 124.47 120.65 129.32C122.72 134.33 128.4 135.79 134.84 137.92C148.56 142.46 163.73 147.66 172.02 159.17C173.38 161.05 177.89 167.3 175.93 172.32C174.25 176.65 168.57 177.98 167.12 178.39C151.85 182.76 130.68 209.6 131.89 233.03C133.1 256.33 156.27 271.58 159.29 273.5C176.11 284.24 185.4 277.72 205.28 289.69C211.05 293.16 230.92 305.12 230.72 319.03C230.5 334.5 205.55 345.52 184.73 354.44C128.15 378.71 99.3597 383.29 51.6597 408.07C19.7697 424.64 12.1497 434.02 7.62967 442.47C-7.92033 471.57 4.31967 506.44 9.58967 519.37L376.03 517.85L376.01 517.86Z" fill="#C12021"/>
</g>
<defs>
<clipPath id="clip0_494_10">
<rect width="545.65" height="519.38" fill="white"/>
</clipPath>
</defs>
</svg>
