<?xml version="1.0" encoding="utf-8"?>
<!-- Generator: Adobe Illustrator 27.0.1, SVG Export Plug-In . SVG Version: 6.00 Build 0)  -->
<svg version="1.1" id="Lag_1" xmlns="http://www.w3.org/2000/svg" xmlns:xlink="http://www.w3.org/1999/xlink" x="0px" y="0px"
	 viewBox="0 0 579 579" style="enable-background:new 0 0 579 579;" xml:space="preserve">
<style type="text/css">
	.st0{fill:#D8D8D7;}
	.st1{clip-path:url(#SVGID_00000029736133516943072960000011133850039698971062_);fill:#D8D8D7;}
	.st2{clip-path:url(#SVGID_00000029736133516943072960000011133850039698971062_);fill:#6F6F6E;}
	.st3{fill:#747473;}
	
		.st4{clip-path:url(#SVGID_00000114783188262751566760000005009443347517205658_);fill:none;stroke:#3C3C3B;stroke-width:3;stroke-miterlimit:10;}
	.st5{clip-path:url(#SVGID_00000114783188262751566760000005009443347517205658_);fill:#3C3C3B;}
	.st6{fill:#FDF0ED;}
	.st7{clip-path:url(#SVGID_00000109021687631825313110000000067959343523880877_);fill:#FDF0ED;}
	.st8{clip-path:url(#SVGID_00000109021687631825313110000000067959343523880877_);fill:#F9D1C9;}
	.st9{fill:#F9DA9E;}
	
		.st10{clip-path:url(#SVGID_00000077326049831798463760000007847524151542994849_);fill:none;stroke:#1D1D1B;stroke-width:3;stroke-miterlimit:10;}
	.st11{clip-path:url(#SVGID_00000077326049831798463760000007847524151542994849_);fill:#F8C680;}
	.st12{fill:#3C3C3B;}
	.st13{clip-path:url(#SVGID_00000152226689311607062310000008728430385504074401_);fill:#3C3C3B;}
	.st14{fill:#E84A4D;}
	.st15{fill:#F9D1C9;}
	.st16{clip-path:url(#SVGID_00000050664894343460806130000009155605259509898938_);fill:#D43740;}
	.st17{clip-path:url(#SVGID_00000172434393363931180930000015166322689951157649_);fill:#3C3C3B;}
	.st18{clip-path:url(#SVGID_00000049198993041931100950000013848203778757334172_);fill:#F8C680;}
	.st19{fill:#F8C680;}
	.st20{clip-path:url(#SVGID_00000183218706101144655690000006470115658867101074_);fill:#3C3C3B;}
	.st21{clip-path:url(#SVGID_00000049906080590470896420000007599836556329726345_);fill:#3C3C3B;}
	.st22{fill:#24B19D;}
	.st23{clip-path:url(#SVGID_00000073716113234993043840000017868194732724235157_);fill:#00A28F;}
	.st24{clip-path:url(#SVGID_00000054944568305081022320000016825325701896555955_);fill:#00A28F;}
	.st25{fill-rule:evenodd;clip-rule:evenodd;fill:#3C3C3B;}
	.st26{fill-rule:evenodd;clip-rule:evenodd;fill:#747473;}
	
		.st27{clip-path:url(#SVGID_00000131360766014927445810000009652638731277455523_);fill-rule:evenodd;clip-rule:evenodd;fill:#3C3C3B;}
	.st28{fill-rule:evenodd;clip-rule:evenodd;fill:#E84A4C;}
	.st29{fill-rule:evenodd;clip-rule:evenodd;fill:#F9DA9E;}
	.st30{fill-rule:evenodd;clip-rule:evenodd;fill:#F8C680;}
	
		.st31{clip-path:url(#SVGID_00000047759779408632569020000013547737968529204104_);fill-rule:evenodd;clip-rule:evenodd;fill:#F8C680;}
	.st32{fill:#E20613;}
</style>
<g>
	<g>
		<path class="st25" d="M283.1,558.6L432.4,251c14.8-35.9-23.7-72.5-14-94.4l13.1-29.6L464,54l1.3,0.6c1.8,0.8,4,0,4.8-1.8l5.3-11.9
			c0.8-1.8,0-4-1.8-4.8l-1.3-0.6l3.5-7.9l0-0.1l0-0.1l0-0.1l0-0.1l0-0.1l0-0.1l0-0.1l0-0.1l0-0.1l0-0.1l0-0.1l0-0.1l0-0.1l0-0.1
			l0-0.1l0,0l0-0.1l0,0l0-0.1l0-0.1l0,0l0-0.1l0,0c0-0.1,0-0.3,0-0.4c-0.1-0.9-0.6-1.8-1.3-2.5l-0.1-0.1l0,0l-0.1-0.1l0,0l-0.1-0.1
			l0,0l-0.1-0.1l0,0l-0.1-0.1l0,0l-0.1-0.1l0,0l-0.1-0.1l0,0l-0.1-0.1l-0.1-0.1l-0.1-0.1l0,0l-0.1-0.1l-0.1-0.1l0,0l-0.1,0l-0.1,0
			L434.9,4.7l-0.2-0.1l-0.2-0.1l0,0l-0.2-0.1l-0.2-0.1l0,0l-0.2,0c-0.1,0-0.2-0.1-0.3-0.1l0,0c-2.3-0.6-4.7,0.2-6.3,1.8l0,0
			l-0.1,0.1l0,0c-0.3,0.3-0.6,0.7-0.8,1l-0.1,0.1l-0.1,0.1l0,0l-0.1,0.1l-0.1,0.1L426.3,8l-2.6,5.9l-1.3-0.6c-1.8-0.8-4,0-4.8,1.8
			l-5.3,11.9c-0.8,1.8,0,4,1.8,4.8l1.3,0.6l-32.4,73L369.9,135c-10.1,22.7-63.7,16.1-79.5,52.9L152.7,507.3
			c-4.1,9.5,0.2,20.5,9.6,24.7l101.5,31.6c9.4,4.2,9,1.7,13.3-7.7L283.1,558.6z M434.2,4.4L434.2,4.4l-0.3-0.1
			C433.9,4.3,434.1,4.4,434.2,4.4z"/>
	</g>
	<path class="st26" d="M82.4,256.7l55.2,289c3.5,18.2,19.4,31.4,38,31.4h110V256.7H82.4z"/>
	<path class="st26" d="M488.5,256.7l-55.2,289c-3.5,18.2-19.4,31.4-38,31.4h-110V256.7H488.5z"/>
	<path class="st25" d="M487,268.1h-403c-7.7,0-13.9-6.2-13.9-13.9v-2.9c0-7.7,6.2-13.9,13.9-13.9h403c7.7,0,13.9,6.2,13.9,13.9v2.9
		C500.8,261.9,494.6,268.1,487,268.1z"/>
	<g>
		<defs>
			<path id="SVGID_00000087399547835143021000000008549372587372458368_" d="M458.4,268.1c0,0-21,230-156.2,309s156.2,90,156.2,90
				l121.9-260.3l-17.1-244.1L458.4,268.1z"/>
		</defs>
		<clipPath id="SVGID_00000055686761492575014510000013770015237207961245_">
			<use xlink:href="#SVGID_00000087399547835143021000000008549372587372458368_"  style="overflow:visible;"/>
		</clipPath>
		
			<path style="clip-path:url(#SVGID_00000055686761492575014510000013770015237207961245_);fill-rule:evenodd;clip-rule:evenodd;fill:#3C3C3B;" d="
			M488.5,256.7l-55.2,289c-3.5,18.2-19.4,31.4-38,31.4h-110V256.7H488.5z"/>
	</g>
</g>
</svg>
