<?xml version="1.0" encoding="utf-8"?>
<!-- Generator: Adobe Illustrator 27.0.1, SVG Export Plug-In . SVG Version: 6.00 Build 0)  -->
<svg version="1.1" id="Lag_1" xmlns="http://www.w3.org/2000/svg" xmlns:xlink="http://www.w3.org/1999/xlink" x="0px" y="0px"
	 viewBox="0 0 579 579" style="enable-background:new 0 0 579 579;" xml:space="preserve">
<style type="text/css">
	.st0{fill:#D8D8D7;}
	.st1{clip-path:url(#SVGID_00000109720471854200032760000007819807672053594500_);fill:#D8D8D7;}
	.st2{clip-path:url(#SVGID_00000109720471854200032760000007819807672053594500_);fill:#6F6F6E;}
	.st3{fill:#747473;}
	
		.st4{clip-path:url(#SVGID_00000137813715665708719820000006591458104066850445_);fill:none;stroke:#3C3C3B;stroke-width:3;stroke-miterlimit:10;}
	.st5{clip-path:url(#SVGID_00000137813715665708719820000006591458104066850445_);fill:#3C3C3B;}
	.st6{fill:#FDF0ED;}
	.st7{clip-path:url(#SVGID_00000129928165930588911830000015984207645997046184_);fill:#FDF0ED;}
	.st8{clip-path:url(#SVGID_00000129928165930588911830000015984207645997046184_);fill:#F9D1C9;}
	.st9{fill:#F9DA9E;}
	
		.st10{clip-path:url(#SVGID_00000033358930541014065010000000066242342083141028_);fill:none;stroke:#1D1D1B;stroke-width:3;stroke-miterlimit:10;}
	.st11{clip-path:url(#SVGID_00000033358930541014065010000000066242342083141028_);fill:#F8C680;}
	.st12{fill:#3C3C3B;}
	.st13{clip-path:url(#SVGID_00000101085837572666259550000013381370114488374658_);fill:#3C3C3B;}
	.st14{fill:#E84A4D;}
	.st15{fill:#F9D1C9;}
	.st16{clip-path:url(#SVGID_00000002348901195109860030000010303309824315528589_);fill:#D43740;}
	.st17{clip-path:url(#SVGID_00000165201087265254232970000015913861537305558145_);fill:#3C3C3B;}
	.st18{clip-path:url(#SVGID_00000123400435675584777010000015993330344313952159_);fill:#F8C680;}
	.st19{fill:#F8C680;}
	.st20{clip-path:url(#SVGID_00000173843541876913248220000011957034251595208633_);fill:#3C3C3B;}
	.st21{clip-path:url(#SVGID_00000106851879708133760610000010391572187831444120_);fill:#3C3C3B;}
	.st22{fill:#24B19D;}
	.st23{clip-path:url(#SVGID_00000134237351923591044900000016386763155919147685_);fill:#00A28F;}
	.st24{clip-path:url(#SVGID_00000101826051201422207100000013430796248772931480_);fill:#00A28F;}
	.st25{fill-rule:evenodd;clip-rule:evenodd;fill:#3C3C3B;}
	.st26{fill-rule:evenodd;clip-rule:evenodd;fill:#747473;}
	
		.st27{clip-path:url(#SVGID_00000176000858207531842710000014528340461265195174_);fill-rule:evenodd;clip-rule:evenodd;fill:#3C3C3B;}
	.st28{fill-rule:evenodd;clip-rule:evenodd;fill:#E84A4C;}
	.st29{fill-rule:evenodd;clip-rule:evenodd;fill:#F9DA9E;}
	.st30{fill-rule:evenodd;clip-rule:evenodd;fill:#F8C680;}
	
		.st31{clip-path:url(#SVGID_00000013902485478438918130000013529149209208151469_);fill-rule:evenodd;clip-rule:evenodd;fill:#F8C680;}
	.st32{fill:#E20613;}
</style>
<g>
	<g>
		<path class="st28" d="M295.1,558.6L444.4,251c14.8-35.9-23.7-72.5-14-94.4l13.1-29.6L476,54l1.3,0.6c1.8,0.8,4,0,4.8-1.8l5.3-11.9
			c0.8-1.8,0-4-1.8-4.8l-1.3-0.6l3.5-7.9l0-0.1l0-0.1l0-0.1l0-0.1l0-0.1l0-0.1l0-0.1l0-0.1l0-0.1l0-0.1l0-0.1l0-0.1l0-0.1l0-0.1
			l0-0.1l0,0l0-0.1l0,0l0-0.1l0-0.1l0,0l0-0.1l0,0c0-0.1,0-0.3,0-0.4c-0.1-0.9-0.6-1.8-1.3-2.5l-0.1-0.1l0,0l-0.1-0.1l0,0l-0.1-0.1
			l0,0l-0.1-0.1l0,0l-0.1-0.1l0,0l-0.1-0.1l0,0l-0.1-0.1l0,0l-0.1-0.1l-0.1-0.1l-0.1-0.1l0,0l-0.1-0.1l-0.1-0.1l0,0l-0.1,0l-0.1,0
			L447,4.7l-0.2-0.1l-0.2-0.1l0,0l-0.2-0.1l-0.2-0.1l0,0l-0.2,0c-0.1,0-0.2-0.1-0.3-0.1l0,0c-2.3-0.6-4.7,0.2-6.3,1.8l0,0l-0.1,0.1
			l0,0c-0.3,0.3-0.6,0.7-0.8,1l-0.1,0.1l-0.1,0.1l0,0l-0.1,0.1l-0.1,0.1L438.3,8l-2.6,5.9l-1.3-0.6c-1.8-0.8-4,0-4.8,1.8l-5.3,11.9
			c-0.8,1.8,0,4,1.8,4.8l1.3,0.6l-32.4,73L381.9,135c-10.1,22.7-63.7,16.1-79.5,52.9L164.7,507.3c-4.1,9.5,0.2,20.5,9.6,24.7
			l101.5,31.6c9.4,4.2,9,1.7,13.3-7.7L295.1,558.6z M446.2,4.4L446.2,4.4l-0.3-0.1C446,4.3,446.1,4.4,446.2,4.4z"/>
	</g>
	<path class="st29" d="M94.4,256.7l55.2,289c3.5,18.2,19.4,31.4,38,31.4h110V256.7H94.4z"/>
	<path class="st29" d="M500.6,256.7l-55.2,289c-3.5,18.2-19.4,31.4-38,31.4h-110V256.7H500.6z"/>
	<path class="st30" d="M499,268.1H96c-7.7,0-13.9-6.2-13.9-13.9v-2.9c0-7.7,6.2-13.9,13.9-13.9h403c7.7,0,13.9,6.2,13.9,13.9v2.9
		C512.9,261.9,506.7,268.1,499,268.1z"/>
	<g>
		<defs>
			<path id="SVGID_00000098928569700937828600000007442480773708924032_" d="M470.5,268.1c0,0-21,230-156.2,309s156.2,90,156.2,90
				l121.9-260.3l-17.1-244.1L470.5,268.1z"/>
		</defs>
		<clipPath id="SVGID_00000121960770379021153290000017586157612808750261_">
			<use xlink:href="#SVGID_00000098928569700937828600000007442480773708924032_"  style="overflow:visible;"/>
		</clipPath>
		
			<path style="clip-path:url(#SVGID_00000121960770379021153290000017586157612808750261_);fill-rule:evenodd;clip-rule:evenodd;fill:#F8C680;" d="
			M500.6,256.7l-55.2,289c-3.5,18.2-19.4,31.4-38,31.4h-110V256.7H500.6z"/>
	</g>
</g>
</svg>
