<?xml version="1.0" encoding="UTF-8"?>
<svg id="Lag_1" data-name="Lag 1" xmlns="http://www.w3.org/2000/svg" viewBox="0 0 400 400">
  <defs>
    <style>
      .cls-1 {
        fill: #67ba88;
      }

      .cls-2 {
        fill: #b21f24;
        opacity: .9;
      }
    </style>
  </defs>
  <path class="cls-1" d="M192.45,71.73c-1.37-7.25-6.42-11.7-11-11.12-3.56,.45-7.04,3.96-6.6,5.56,.64,2.31,10.01,2.57,14.4-2.63,.51-.61,.86-1.17,1-1.42,2.3-3.89,2.31-9.44,.88-12.14-3.51-6.61-19.35-2.9-19.36-3.03,0-.13,15.47,.59,17.16-5.06,.63-2.08-.73-4.66-2.64-7.08l-21.12,3.54-1.13,30.91,28.41,2.46Z"/>
  <path class="cls-2" d="M210.49,214.59c5.67-5.74,20.35,4.91,26.89-1.69,4.2-4.24,.37-10.88,4.62-14.39,4.75-3.92,16.49-1.4,20.59,5.08,8.66,13.69-12.85,51.32-30.67,49.52-7.79-.79-13.4-8.96-15.97-12.7-5.15-7.5-10.31-20.91-5.46-25.82Z"/>
  <path d="M135.51,332.92c-.38,0-.68-.3-.68-.68V176.5c0-.08,.01-.15,.04-.23l21.97-62.1,2.64-72.2c.01-.32,.25-.59,.57-.65l21.12-3.54c.25-.04,.49,.05,.65,.25,2.47,3.13,3.37,5.65,2.76,7.7-.47,1.56-1.83,2.79-4.06,3.69,2.8,.56,5.07,1.74,6.21,3.88,1.52,2.87,1.53,8.7-.89,12.8-.31,.53-.68,1.05-1.07,1.51,0,0-.01,.01-.02,.02,1.6,2.01,2.81,4.63,3.37,7.61,0,.04,.01,.09,.01,.13l-.22,30.21c1.14,4.05,2.98,7.81,5.47,11.19,1.24,1.69,2.6,2.57,3.91,3.41,1.68,1.08,3.41,2.21,4.64,4.93,.05,.11,.07,.24,.06,.36-.68,5.98-6.41,15.5-16.08,22.46,.32,.24,.66,.46,1.01,.68,1.53,.93,4.36,2.65,22.11,4.41,1.42-2.23,3.02-4.2,4.79-5.84,4.85-4.5,11.21-6.95,18.92-7.26,5.4-.22,10.14,1,13.17,2.06,3.76,1.32,7.01,3.17,8.69,4.96,.94,1,1.38,1.96,1.29,2.83-.31,3.01-6.94,4.81-20.88,5.67-8.38,.52-18.31-.34-21.58-.62-1.09-.09-1.29-.11-1.88-.17-.35-.04-.85-.09-1.78-.18-4.54,7.6-7.01,18.18-6.38,28.63,.6,10.02,3.92,17.92,9.09,21.68,6.76,4.92,17.86,4,23.76-1.95,2.49-2.51,3.53-5.33,4.54-8.06,1.08-2.92,2.11-5.68,4.85-7.23,5.58-3.15,14.82,.08,19.38,6.78,10.04,14.76-5.05,43.44-13.16,58.85-5.25,9.97-8.16,12.5-11.41,13.48-3.23,.98-6.99,.48-10.86-1.34,1.94,13.73,3.39,32.59,4.3,56.28,.01,.38-.28,.69-.65,.71-.37,.02-.69-.28-.71-.65-1.01-26.18-2.59-44.47-4.43-57.09-2.65-1.46-5.32-3.52-7.89-6.13-5.9-5.97-9.14-12.93-7.88-16.9,.86-2.72,3.94-4.87,6.46-4.51,3.73,.53,6.7,6.44,9.08,18.07,.52,2.56,1.02,5.42,1.49,8.56,3.54,1.84,7.31,2.74,10.7,1.71,2.9-.88,5.57-3.26,10.6-12.81,7.97-15.16,22.82-43.37,13.24-57.45-4.11-6.05-12.66-9.14-17.58-6.36-2.31,1.3-3.2,3.72-4.24,6.51-1.01,2.73-2.16,5.82-4.85,8.54-6.33,6.4-18.26,7.38-25.52,2.09-5.5-4-9.02-12.27-9.65-22.7-.64-10.63,1.71-21.1,6.21-28.86-17.49-1.77-20.43-3.56-22.04-4.53-.53-.32-1.02-.66-1.48-1.02-4.49,3.02-8.42,4.3-11.09,3.63-2.89-.73-6.11-3.36-7.83-6.4-1.22-2.16-1.57-4.26-1.02-6.09,.89-2.92,4.05-5.1,8.06-5.54,.03,0,.07,0,.1,0,3.14,0,4.84,2.79,6.8,6.02,1.36,2.23,2.85,4.7,5.06,6.67,7.06-5.02,14.84-14.11,15.8-21.54-1.06-2.24-2.45-3.14-4.06-4.18-1.35-.87-2.87-1.85-4.26-3.75-2.6-3.54-4.52-7.48-5.71-11.72-.02-.06-.03-.12-.03-.19l.22-30.24c-.54-2.81-1.61-5.1-2.96-6.82-3.55,3.24-8.96,3.88-11.95,3.22-1.5-.33-2.42-.97-2.67-1.84-.18-.65,.03-1.46,.62-2.34,1.18-1.77,3.81-3.74,6.56-4.08,2.68-.34,5.33,.84,7.47,3.03,.3-.37,.58-.78,.82-1.19,2.16-3.66,2.19-8.98,.87-11.47-1.14-2.15-4.02-3.34-8.37-3.54-2.57,.53-5.79,.81-9.65,.85-.23,0-.4,0-.52,0-.35,.05-.47,.02-.65-.13-.15-.12-.25-.3-.26-.5-.01-.19,.06-.37,.18-.5,.15-.16,.24-.21,.6-.23,.1-.02,.24-.04,.42-.07,3.11-.53,6.57-.92,9.74-.79,4.59-.98,5.91-2.59,6.24-3.69,.45-1.5-.31-3.57-2.28-6.14l-20.17,3.38-2.62,71.75c0,.07-.02,.14-.04,.2l-21.96,62.08v155.62c0,.38-.3,.68-.68,.68Zm82.67-94.59c-1.82,0-3.96,1.64-4.58,3.6-1.1,3.46,2.08,9.99,7.55,15.54,1.91,1.94,4.21,3.83,6.66,5.31-2.86-18.54-6.31-24.01-9.24-24.42-.13-.02-.26-.03-.4-.03Zm-7.61-85.15c.52,.05,.85,.09,1.11,.11,.58,.06,.78,.08,1.86,.17,3.24,.28,13.1,1.13,21.38,.62,17.39-1.07,19.5-3.47,19.61-4.45,.05-.45-.28-1.08-.92-1.76-2.82-3-11.62-6.96-20.81-6.59-7.37,.3-13.44,2.62-18.04,6.9-1.52,1.41-2.91,3.09-4.17,5Zm-37.62-17.46c-3.45,.39-6.14,2.18-6.87,4.57-.56,1.84,.18,3.75,.9,5.02,1.55,2.74,4.41,5.1,6.97,5.75,2.21,.56,5.71-.61,9.68-3.23-2.21-2.04-3.7-4.51-5.06-6.75-1.82-2.99-3.25-5.36-5.63-5.37Zm4.27-70.84c-.24,0-.47,.01-.7,.04-2.32,.29-4.61,2.01-5.59,3.49-.4,.6-.49,1.03-.44,1.22,.08,.27,.61,.65,1.65,.87,2.62,.57,7.59-.02,10.76-2.92-1.74-1.77-3.79-2.7-5.68-2.7Z"/>
  <path d="M153,317.73c-28.04-22.63,4.98-88.49,.59-126.65-.18-1.58-.73-5.73,1.77-7.99,6.36-5.75,30.96,2.18,38.93,17.13,8.72,16.35-9.85,27.2-11.21,59.38-1.41,33.29,17.25,50.69,7.67,60.52-7.16,7.35-26.48,6.73-37.75-2.37Z"/>
  <path d="M239.72,364.95c-8.18,0-15.75-1.24-20.62-3.37-3.05-1.33-4.93-2.93-5.6-4.76-2.72-7.45,18.72-18.42,37.4-26.39l-4.04-54.87,1.36-.1,4.12,55.84-.45,.19c-25.03,10.64-38.9,19.93-37.1,24.86,.53,1.44,2.21,2.82,4.87,3.98,9.76,4.27,30.64,4.84,45-1.16,7.69-3.21,7.52-4.54,7.47-4.68-.1-.3-1.17-1.82-13.19-1.79-6.52,.01-15.47,.46-26.61,1.34l-.11-1.36c11.17-.88,20.16-1.33,26.71-1.34,9.54,0,13.87,.8,14.49,2.73,.57,1.79-1.89,3.69-8.24,6.35-7.53,3.15-16.83,4.52-25.45,4.52Z"/>
  <path d="M185.64,342.99c-8.98,0-17.84-.62-26.53-1.87-6.02-.86-11.97-2.04-17.69-3.5l.34-1.32c5.68,1.45,11.58,2.61,17.55,3.47,19.31,2.77,39.48,2.44,59.96-.99l.23,1.34c-11.41,1.91-22.73,2.87-33.85,2.87Z"/>
</svg>