<?xml version="1.0" encoding="utf-8"?>
<!-- Generator: Adobe Illustrator 27.0.1, SVG Export Plug-In . SVG Version: 6.00 Build 0)  -->
<svg version="1.1" id="Lag_1" xmlns="http://www.w3.org/2000/svg" xmlns:xlink="http://www.w3.org/1999/xlink" x="0px" y="0px"
	 viewBox="0 0 400 400" style="enable-background:new 0 0 400 400;" xml:space="preserve">
<style type="text/css">
	.st0{fill:#67BA88;}
	.st1{opacity:0.9;fill:#B21F24;}
	.st2{fill:#FFFFFF;stroke:#FFFFFF;stroke-width:2;stroke-miterlimit:10;}
	.st3{fill:#FDF0D5;}
	.st4{stroke:#1D1D1B;stroke-width:2;stroke-miterlimit:10;}
</style>
<g>
	<path class="st0" d="M188.3,71.8c-1.4-7.3-6.4-11.7-11-11.1c-3.6,0.4-7,4-6.6,5.6c0.6,2.3,10,2.6,14.4-2.6c0.5-0.6,0.9-1.2,1-1.4
		c2.3-3.9,2.3-9.4,0.9-12.1c-3.5-6.6-19.4-2.9-19.4-3c0-0.1,15.5,0.6,17.2-5.1c0.6-2.1-0.7-4.7-2.6-7.1L161,38.5l-1.1,30.9
		L188.3,71.8z"/>
	<path class="st1" d="M206.3,214.7c5.7-5.7,20.3,4.9,26.9-1.7c4.2-4.2,0.4-10.9,4.6-14.4c4.7-3.9,16.5-1.4,20.6,5.1
		c8.7,13.7-12.9,51.3-30.7,49.5c-7.8-0.8-13.4-9-16-12.7C206.6,233,201.5,219.6,206.3,214.7z"/>
	<path class="st2" d="M131.4,333c-0.4,0-0.7-0.3-0.7-0.7V176.6c0-0.1,0-0.2,0-0.2l22-62.1l2.6-72.2c0-0.3,0.2-0.6,0.6-0.6l21.1-3.5
		c0.2,0,0.5,0.1,0.6,0.3c2.5,3.1,3.4,5.7,2.8,7.7c-0.5,1.6-1.8,2.8-4.1,3.7c2.8,0.6,5.1,1.7,6.2,3.9c1.5,2.9,1.5,8.7-0.9,12.8
		c-0.3,0.5-0.7,1-1.1,1.5c0,0,0,0,0,0c1.6,2,2.8,4.6,3.4,7.6c0,0,0,0.1,0,0.1l-0.2,30.2c1.1,4,3,7.8,5.5,11.2
		c1.2,1.7,2.6,2.6,3.9,3.4c1.7,1.1,3.4,2.2,4.6,4.9c0.1,0.1,0.1,0.2,0.1,0.4c-0.7,6-6.4,15.5-16.1,22.5c0.3,0.2,0.7,0.5,1,0.7
		c1.5,0.9,4.4,2.6,22.1,4.4c1.4-2.2,3-4.2,4.8-5.8c4.8-4.5,11.2-6.9,18.9-7.3c5.4-0.2,10.1,1,13.2,2.1c3.8,1.3,7,3.2,8.7,5
		c0.9,1,1.4,2,1.3,2.8c-0.3,3-6.9,4.8-20.9,5.7c-8.4,0.5-18.3-0.3-21.6-0.6c-1.1-0.1-1.3-0.1-1.9-0.2c-0.4,0-0.9-0.1-1.8-0.2
		c-4.5,7.6-7,18.2-6.4,28.6c0.6,10,3.9,17.9,9.1,21.7c6.8,4.9,17.9,4,23.8-2c2.5-2.5,3.5-5.3,4.5-8.1c1.1-2.9,2.1-5.7,4.8-7.2
		c5.6-3.2,14.8,0.1,19.4,6.8c10,14.8-5.1,43.4-13.2,58.8c-5.2,10-8.2,12.5-11.4,13.5c-3.2,1-7,0.5-10.9-1.3
		c1.9,13.7,3.4,32.6,4.3,56.3c0,0.4-0.3,0.7-0.7,0.7c-0.4,0-0.7-0.3-0.7-0.7c-1-26.2-2.6-44.5-4.4-57.1c-2.6-1.5-5.3-3.5-7.9-6.1
		c-5.9-6-9.1-12.9-7.9-16.9c0.9-2.7,3.9-4.9,6.5-4.5c3.7,0.5,6.7,6.4,9.1,18.1c0.5,2.6,1,5.4,1.5,8.6c3.5,1.8,7.3,2.7,10.7,1.7
		c2.9-0.9,5.6-3.3,10.6-12.8c8-15.2,22.8-43.4,13.2-57.4c-4.1-6-12.7-9.1-17.6-6.4c-2.3,1.3-3.2,3.7-4.2,6.5c-1,2.7-2.2,5.8-4.9,8.5
		c-6.3,6.4-18.3,7.4-25.5,2.1c-5.5-4-9-12.3-9.6-22.7c-0.6-10.6,1.7-21.1,6.2-28.9c-17.5-1.8-20.4-3.6-22-4.5c-0.5-0.3-1-0.7-1.5-1
		c-4.5,3-8.4,4.3-11.1,3.6c-2.9-0.7-6.1-3.4-7.8-6.4c-1.2-2.2-1.6-4.3-1-6.1c0.9-2.9,4.1-5.1,8.1-5.5c0,0,0.1,0,0.1,0
		c3.1,0,4.8,2.8,6.8,6c1.4,2.2,2.9,4.7,5.1,6.7c7.1-5,14.8-14.1,15.8-21.5c-1.1-2.2-2.5-3.1-4.1-4.2c-1.3-0.9-2.9-1.9-4.3-3.7
		c-2.6-3.5-4.5-7.5-5.7-11.7c0-0.1,0-0.1,0-0.2l0.2-30.2c-0.5-2.8-1.6-5.1-3-6.8c-3.6,3.2-9,3.9-12,3.2c-1.5-0.3-2.4-1-2.7-1.8
		c-0.2-0.7,0-1.5,0.6-2.3c1.2-1.8,3.8-3.7,6.6-4.1c2.7-0.3,5.3,0.8,7.5,3c0.3-0.4,0.6-0.8,0.8-1.2c2.2-3.7,2.2-9,0.9-11.5
		c-1.1-2.1-4-3.3-8.4-3.5c-2.6,0.5-5.8,0.8-9.6,0.8c-0.2,0-0.4,0-0.5,0c-0.4,0-0.5,0-0.6-0.1c-0.2-0.1-0.2-0.3-0.3-0.5
		c0-0.2,0.1-0.4,0.2-0.5c0.1-0.2,0.2-0.2,0.6-0.2c0.1,0,0.2,0,0.4-0.1c3.1-0.5,6.6-0.9,9.7-0.8c4.6-1,5.9-2.6,6.2-3.7
		c0.5-1.5-0.3-3.6-2.3-6.1l-20.2,3.4l-2.6,71.8c0,0.1,0,0.1,0,0.2l-22,62.1v155.6C132,332.7,131.7,333,131.4,333z M214,238.4
		c-1.8,0-4,1.6-4.6,3.6c-1.1,3.5,2.1,10,7.6,15.5c1.9,1.9,4.2,3.8,6.7,5.3c-2.9-18.5-6.3-24-9.2-24.4
		C214.3,238.5,214.2,238.4,214,238.4z M206.4,153.3c0.5,0.1,0.9,0.1,1.1,0.1c0.6,0.1,0.8,0.1,1.9,0.2c3.2,0.3,13.1,1.1,21.4,0.6
		c17.4-1.1,19.5-3.5,19.6-4.4c0-0.5-0.3-1.1-0.9-1.8c-2.8-3-11.6-7-20.8-6.6c-7.4,0.3-13.4,2.6-18,6.9
		C209.1,149.7,207.7,151.4,206.4,153.3z M168.8,135.8c-3.4,0.4-6.1,2.2-6.9,4.6c-0.6,1.8,0.2,3.7,0.9,5c1.5,2.7,4.4,5.1,7,5.8
		c2.2,0.6,5.7-0.6,9.7-3.2c-2.2-2-3.7-4.5-5.1-6.8C172.6,138.2,171.2,135.8,168.8,135.8z M173.1,65c-0.2,0-0.5,0-0.7,0
		c-2.3,0.3-4.6,2-5.6,3.5c-0.4,0.6-0.5,1-0.4,1.2c0.1,0.3,0.6,0.6,1.6,0.9c2.6,0.6,7.6,0,10.8-2.9C177,65.9,175,65,173.1,65z"/>
	<path class="st3" d="M148.8,317.8c-28-22.6,5-88.5,0.6-126.7c-0.2-1.6-0.7-5.7,1.8-8c6.4-5.8,31,2.2,38.9,17.1
		c8.7,16.3-9.8,27.2-11.2,59.4c-1.4,33.3,17.2,50.7,7.7,60.5C179.4,327.6,160.1,326.9,148.8,317.8z"/>
	<path class="st2" d="M235.6,365.1c-8.2,0-15.7-1.2-20.6-3.4c-3-1.3-4.9-2.9-5.6-4.8c-2.7-7.4,18.7-18.4,37.4-26.4l-4-54.9l1.4-0.1
		l4.1,55.8l-0.4,0.2c-25,10.6-38.9,19.9-37.1,24.9c0.5,1.4,2.2,2.8,4.9,4c9.8,4.3,30.6,4.8,45-1.2c7.7-3.2,7.5-4.5,7.5-4.7
		c-0.1-0.3-1.2-1.8-13.2-1.8c-6.5,0-15.5,0.5-26.6,1.3l-0.1-1.4c11.2-0.9,20.2-1.3,26.7-1.3c9.5,0,13.9,0.8,14.5,2.7
		c0.6,1.8-1.9,3.7-8.2,6.3C253.5,363.7,244.2,365.1,235.6,365.1z"/>
	<path class="st2" d="M181.5,343.1c-9,0-17.8-0.6-26.5-1.9c-6-0.9-12-2-17.7-3.5l0.3-1.3c5.7,1.4,11.6,2.6,17.5,3.5
		c19.3,2.8,39.5,2.4,60-1l0.2,1.3C203.9,342.1,192.6,343.1,181.5,343.1z"/>
</g>
</svg>
