<?xml version="1.0" encoding="utf-8"?>
<!-- Generator: Adobe Illustrator 27.0.1, SVG Export Plug-In . SVG Version: 6.00 Build 0)  -->
<svg version="1.1" id="Lag_1" xmlns="http://www.w3.org/2000/svg" xmlns:xlink="http://www.w3.org/1999/xlink" x="0px" y="0px"
	 viewBox="0 0 579 579" style="enable-background:new 0 0 579 579;" xml:space="preserve">
<style type="text/css">
	.st0{fill:#D8D8D7;}
	.st1{clip-path:url(#SVGID_00000147182043199402850780000006465954962003372464_);fill:#D8D8D7;}
	.st2{clip-path:url(#SVGID_00000147182043199402850780000006465954962003372464_);fill:#6F6F6E;}
	.st3{fill:#747473;}
	
		.st4{clip-path:url(#SVGID_00000118365000458938013780000014080454767279515024_);fill:none;stroke:#3C3C3B;stroke-width:3;stroke-miterlimit:10;}
	.st5{clip-path:url(#SVGID_00000118365000458938013780000014080454767279515024_);fill:#3C3C3B;}
	.st6{fill:#FDF0ED;}
	.st7{clip-path:url(#SVGID_00000073683374443784637670000011154671044417109423_);fill:#FDF0ED;}
	.st8{clip-path:url(#SVGID_00000073683374443784637670000011154671044417109423_);fill:#F9D1C9;}
	.st9{fill:#F9DA9E;}
	
		.st10{clip-path:url(#SVGID_00000075874723474122768680000002239409927285687947_);fill:none;stroke:#1D1D1B;stroke-width:3;stroke-miterlimit:10;}
	.st11{clip-path:url(#SVGID_00000075874723474122768680000002239409927285687947_);fill:#F8C680;}
	.st12{fill:#3C3C3B;}
	.st13{clip-path:url(#SVGID_00000093858817383146998410000017505820338266433185_);fill:#3C3C3B;}
	.st14{fill:#E84A4D;}
	.st15{fill:#F9D1C9;}
	.st16{clip-path:url(#SVGID_00000037690742664754668820000015629081803321961117_);fill:#D43740;}
	.st17{clip-path:url(#SVGID_00000047749676814860555450000011205603971670699155_);fill:#3C3C3B;}
	.st18{clip-path:url(#SVGID_00000081628306094550702420000015867064351403854490_);fill:#F8C680;}
	.st19{fill:#F8C680;}
	.st20{clip-path:url(#SVGID_00000124871363069056933330000010030369822710259633_);fill:#3C3C3B;}
	.st21{clip-path:url(#SVGID_00000129186405335789265220000007563201915847397046_);fill:#3C3C3B;}
	.st22{fill:#24B19D;}
	.st23{clip-path:url(#SVGID_00000106133751001748890290000001306004268977882041_);fill:#00A28F;}
	.st24{clip-path:url(#SVGID_00000029006660408681909250000001507711865162192035_);fill:#00A28F;}
	.st25{fill-rule:evenodd;clip-rule:evenodd;fill:#3C3C3B;}
	.st26{fill-rule:evenodd;clip-rule:evenodd;fill:#747473;}
	
		.st27{clip-path:url(#SVGID_00000008865762443471955400000007571982476944677306_);fill-rule:evenodd;clip-rule:evenodd;fill:#3C3C3B;}
	.st28{fill-rule:evenodd;clip-rule:evenodd;fill:#E84A4C;}
	.st29{fill-rule:evenodd;clip-rule:evenodd;fill:#F9DA9E;}
	.st30{fill-rule:evenodd;clip-rule:evenodd;fill:#F8C680;}
	
		.st31{clip-path:url(#SVGID_00000162316708745960223050000007415220677999590017_);fill-rule:evenodd;clip-rule:evenodd;fill:#F8C680;}
	.st32{fill:#E20613;}
</style>
<g>
	<g>
		<circle class="st6" cx="262.8" cy="532.6" r="45.9"/>
		<circle class="st6" cx="334.2" cy="532.6" r="45.9"/>
		<rect x="262.8" y="341.5" class="st6" width="71.4" height="174.7"/>
		<g>
			<defs>
				<path id="SVGID_00000130635338268905735700000002202808993308628375_" d="M308.2,341.9v156.5c0,0,33.7,0.4,41.7,21.3
					c8,20.9,2.2,32.9,0,36.8c-2.2,4-5.1,17-21.9,22c-16.8,5.1,34.7,20.6,34.7,20.6l74.1-77.7l-12-51l-45.4-80.9l-26.1-45.7
					l-8.4-12.4L308.2,341.9z"/>
			</defs>
			<clipPath id="SVGID_00000062156454510751061900000012393218358014000036_">
				<use xlink:href="#SVGID_00000130635338268905735700000002202808993308628375_"  style="overflow:visible;"/>
			</clipPath>
			
				<circle style="clip-path:url(#SVGID_00000062156454510751061900000012393218358014000036_);fill:#FDF0ED;" cx="262.2" cy="533" r="45.9"/>
			
				<circle style="clip-path:url(#SVGID_00000062156454510751061900000012393218358014000036_);fill:#F9D1C9;" cx="333.6" cy="533" r="45.9"/>
			
				<rect x="262.2" y="341.9" style="clip-path:url(#SVGID_00000062156454510751061900000012393218358014000036_);fill:#F9D1C9;" width="71.4" height="174.7"/>
		</g>
	</g>
	<path class="st9" d="M259.7,419.4h77.5c0,0,17.1-1.4,14-22.9c-3.1-21.5,9.6-54.7,60.2-111.5S466.5,5.5,298.5,3.7h0
		C130.5,5.5,135,228.3,185.6,285s63.3,90,60.2,111.5S259.7,419.4,259.7,419.4h77.5"/>
	<g>
		<defs>
			<path id="SVGID_00000001659627403032525900000004695381383556697020_" d="M318.3,419.4v-54.7c0,0,10.2-60,61.9-103.7
				S405,80.5,384.6,53.7S321.8,5.4,321.8,5.4l50.8-34.2l167.9,79l31.7,224.3l-57.1,83.9l-115,79L318.3,419.4z"/>
		</defs>
		<clipPath id="SVGID_00000160886692736510946670000014225589106128393628_">
			<use xlink:href="#SVGID_00000001659627403032525900000004695381383556697020_"  style="overflow:visible;"/>
		</clipPath>
		<path style="clip-path:url(#SVGID_00000160886692736510946670000014225589106128393628_);fill:#F8C680;" d="M259.7,419.4h77.5
			c0,0,17.1-1.4,14-22.9c-3.1-21.5,9.6-54.7,60.2-111.5S466.5,5.5,298.5,3.7h0C130.5,5.5,135,228.3,185.6,285s63.3,90,60.2,111.5
			S259.7,419.4,259.7,419.4h77.5"/>
	</g>
</g>
</svg>
