<?xml version="1.0" encoding="utf-8"?>
<!-- Generator: Adobe Illustrator 27.0.1, SVG Export Plug-In . SVG Version: 6.00 Build 0)  -->
<svg version="1.1" id="Lag_1" xmlns="http://www.w3.org/2000/svg" xmlns:xlink="http://www.w3.org/1999/xlink" x="0px" y="0px"
	 viewBox="0 0 579 579" style="enable-background:new 0 0 579 579;" xml:space="preserve">
<style type="text/css">
	.st0{fill:#D8D8D7;}
	.st1{clip-path:url(#SVGID_00000073715306232695997680000010472480057317906614_);fill:#D8D8D7;}
	.st2{clip-path:url(#SVGID_00000073715306232695997680000010472480057317906614_);fill:#6F6F6E;}
	.st3{fill:#747473;}
	
		.st4{clip-path:url(#SVGID_00000179646583515028824330000012160605786561297291_);fill:none;stroke:#3C3C3B;stroke-width:3;stroke-miterlimit:10;}
	.st5{clip-path:url(#SVGID_00000179646583515028824330000012160605786561297291_);fill:#3C3C3B;}
	.st6{fill:#FDF0ED;}
	.st7{clip-path:url(#SVGID_00000165229907371761063340000008109468006074096274_);fill:#FDF0ED;}
	.st8{clip-path:url(#SVGID_00000165229907371761063340000008109468006074096274_);fill:#F9D1C9;}
	.st9{fill:#F9DA9E;}
	
		.st10{clip-path:url(#SVGID_00000162349250987489709610000007015129841854644117_);fill:none;stroke:#1D1D1B;stroke-width:3;stroke-miterlimit:10;}
	.st11{clip-path:url(#SVGID_00000162349250987489709610000007015129841854644117_);fill:#F8C680;}
	.st12{fill:#3C3C3B;}
	.st13{clip-path:url(#SVGID_00000031185230727492436970000008506440756196501152_);fill:#3C3C3B;}
	.st14{fill:#E84A4D;}
	.st15{fill:#F9D1C9;}
	.st16{clip-path:url(#SVGID_00000123399383119726211040000006978870442001803947_);fill:#D43740;}
	.st17{clip-path:url(#SVGID_00000129927817609728376840000006032056707727451813_);fill:#3C3C3B;}
	.st18{clip-path:url(#SVGID_00000054230852505467707640000009217703735073925529_);fill:#F8C680;}
	.st19{fill:#F8C680;}
	.st20{clip-path:url(#SVGID_00000095340566887801414620000002811370697363846822_);fill:#3C3C3B;}
	.st21{clip-path:url(#SVGID_00000122706864345012417460000000010826883317787304_);fill:#3C3C3B;}
	.st22{fill:#24B19D;}
	.st23{clip-path:url(#SVGID_00000137831765698987039110000003667344459259248306_);fill:#00A28F;}
	.st24{clip-path:url(#SVGID_00000110463507893248282770000012822750150782696884_);fill:#00A28F;}
	.st25{fill-rule:evenodd;clip-rule:evenodd;fill:#3C3C3B;}
	.st26{fill-rule:evenodd;clip-rule:evenodd;fill:#747473;}
	
		.st27{clip-path:url(#SVGID_00000100380747886187714820000016045247496048696226_);fill-rule:evenodd;clip-rule:evenodd;fill:#3C3C3B;}
	.st28{fill-rule:evenodd;clip-rule:evenodd;fill:#E84A4C;}
	.st29{fill-rule:evenodd;clip-rule:evenodd;fill:#F9DA9E;}
	.st30{fill-rule:evenodd;clip-rule:evenodd;fill:#F8C680;}
	
		.st31{clip-path:url(#SVGID_00000134944730477552554860000012374447725485241271_);fill-rule:evenodd;clip-rule:evenodd;fill:#F8C680;}
	.st32{fill:#E20613;}
</style>
<g>
	<g>
		<circle class="st0" cx="257" cy="530.9" r="45.9"/>
		<circle class="st0" cx="328.4" cy="530.9" r="45.9"/>
		<rect x="257" y="339.8" class="st0" width="71.4" height="174.7"/>
		<g>
			<defs>
				<path id="SVGID_1_" d="M302.4,340.2v156.5c0,0,33.7,0.4,41.7,21.3c8,20.9,2.2,32.9,0,36.8c-2.2,4-5.1,17-21.9,22
					s34.7,20.6,34.7,20.6l74.1-77.7l-12-51l-45.4-80.9l-26.1-45.7l-8.4-12.4L302.4,340.2z"/>
			</defs>
			<clipPath id="SVGID_00000150815747476679856060000010291175002619465392_">
				<use xlink:href="#SVGID_1_"  style="overflow:visible;"/>
			</clipPath>
			
				<circle style="clip-path:url(#SVGID_00000150815747476679856060000010291175002619465392_);fill:#D8D8D7;" cx="256.4" cy="531.3" r="45.9"/>
			
				<circle style="clip-path:url(#SVGID_00000150815747476679856060000010291175002619465392_);fill:#6F6F6E;" cx="327.8" cy="531.3" r="45.9"/>
			
				<rect x="256.4" y="340.2" style="clip-path:url(#SVGID_00000150815747476679856060000010291175002619465392_);fill:#6F6F6E;" width="71.4" height="174.7"/>
		</g>
	</g>
	<path class="st3" d="M254,417.7h77.5c0,0,17.1-1.4,14-22.9c-3.1-21.5,9.6-54.7,60.2-111.5S460.8,3.8,292.7,1.9h0
		c-168,1.9-163.5,224.6-112.9,281.4s63.3,90,60.2,111.5C236.9,416.3,254,417.7,254,417.7h77.5"/>
	<g>
		<defs>
			<path id="SVGID_00000090266306803173268160000001302608289686599848_" d="M312.5,417.7V363c0,0,10.2-60,61.9-103.7
				S399.3,78.8,378.8,52S316,3.7,316,3.7l50.8-34.2l167.9,79l31.7,224.3l-57.1,83.9l-115,79L312.5,417.7z"/>
		</defs>
		<clipPath id="SVGID_00000148650068266320860080000000209092993631302306_">
			<use xlink:href="#SVGID_00000090266306803173268160000001302608289686599848_"  style="overflow:visible;"/>
		</clipPath>
		<path style="clip-path:url(#SVGID_00000148650068266320860080000000209092993631302306_);fill:#3C3C3B;" d="M254,417.7h77.5
			c0,0,17.1-1.4,14-22.9c-3.1-21.5,9.6-54.7,60.2-111.5S460.8,3.8,292.7,1.9h0c-168,1.9-163.5,224.6-112.9,281.4s63.3,90,60.2,111.5
			C236.9,416.3,254,417.7,254,417.7h77.5"/>
	</g>
</g>
</svg>
