<?xml version="1.0" encoding="utf-8"?>
<!-- Generator: Adobe Illustrator 27.0.1, SVG Export Plug-In . SVG Version: 6.00 Build 0)  -->
<svg version="1.1" id="Lag_1" xmlns="http://www.w3.org/2000/svg" xmlns:xlink="http://www.w3.org/1999/xlink" x="0px" y="0px"
	 viewBox="0 0 579 579" style="enable-background:new 0 0 579 579;" xml:space="preserve">
<style type="text/css">
	.st0{fill:#D8D8D7;}
	.st1{clip-path:url(#SVGID_00000156567284474241153050000012191415979152560777_);fill:#D8D8D7;}
	.st2{clip-path:url(#SVGID_00000156567284474241153050000012191415979152560777_);fill:#6F6F6E;}
	.st3{fill:#747473;}
	
		.st4{clip-path:url(#SVGID_00000100347741147300877950000000503533143692524734_);fill:none;stroke:#3C3C3B;stroke-width:3;stroke-miterlimit:10;}
	.st5{clip-path:url(#SVGID_00000100347741147300877950000000503533143692524734_);fill:#3C3C3B;}
	.st6{fill:#FDF0ED;}
	.st7{clip-path:url(#SVGID_00000115493656494814635820000011097508341858534813_);fill:#FDF0ED;}
	.st8{clip-path:url(#SVGID_00000115493656494814635820000011097508341858534813_);fill:#F9D1C9;}
	.st9{fill:#F9DA9E;}
	
		.st10{clip-path:url(#SVGID_00000060032682784699084920000012588333096647340164_);fill:none;stroke:#1D1D1B;stroke-width:3;stroke-miterlimit:10;}
	.st11{clip-path:url(#SVGID_00000060032682784699084920000012588333096647340164_);fill:#F8C680;}
	.st12{fill:#3C3C3B;}
	.st13{clip-path:url(#SVGID_00000137119653068379636610000011825817868307575953_);fill:#3C3C3B;}
	.st14{fill:#E84A4D;}
	.st15{fill:#F9D1C9;}
	.st16{clip-path:url(#SVGID_00000103965233827741454180000012641897702909593240_);fill:#D43740;}
	.st17{clip-path:url(#SVGID_00000123436303894425664550000012257957884168578734_);fill:#3C3C3B;}
	.st18{clip-path:url(#SVGID_00000062152458839722128100000002874406690334514109_);fill:#F8C680;}
	.st19{fill:#F8C680;}
	.st20{clip-path:url(#SVGID_00000174598578518460138780000004822725967635613066_);fill:#3C3C3B;}
	.st21{clip-path:url(#SVGID_00000183928958175506785070000014926162866521857927_);fill:#3C3C3B;}
	.st22{fill:#24B19D;}
	.st23{clip-path:url(#SVGID_00000016033933919435038060000004125627084703398304_);fill:#00A28F;}
	.st24{clip-path:url(#SVGID_00000130606031540500445830000004092247044038392452_);fill:#00A28F;}
	.st25{fill-rule:evenodd;clip-rule:evenodd;fill:#3C3C3B;}
	.st26{fill-rule:evenodd;clip-rule:evenodd;fill:#747473;}
	
		.st27{clip-path:url(#SVGID_00000103261942438348181710000013627599055680524711_);fill-rule:evenodd;clip-rule:evenodd;fill:#3C3C3B;}
	.st28{fill-rule:evenodd;clip-rule:evenodd;fill:#E84A4C;}
	.st29{fill-rule:evenodd;clip-rule:evenodd;fill:#F9DA9E;}
	.st30{fill-rule:evenodd;clip-rule:evenodd;fill:#F8C680;}
	
		.st31{clip-path:url(#SVGID_00000085247156203147820700000000170443098743766461_);fill-rule:evenodd;clip-rule:evenodd;fill:#F8C680;}
	.st32{fill:#E20613;}
</style>
<g>
	<path class="st14" d="M459,264.5c0,39.1,0,78.1,0,117.2c-0.1,94.5-60.2,175.6-142.6,192.7c-94.1,19.5-185.1-49.1-202.9-155.1
		c-12.6-75.2,23.2-120.9,58.8-148.9c22.2-22,34.3-89.8,33.8-122.9c-0.9-67.7,41.4-129.2,103-142.4c67-14.3,131.6,33.9,146.8,108.5
		c2.1,10.5,3.1,21.1,3.1,31.9C458.9,185.2,459,224.8,459,264.5z"/>
	<circle class="st15" cx="198.4" cy="407.8" r="46.2"/>
	<g>
		<defs>
			<path id="SVGID_00000153684261150860034680000004065255199734548906_" d="M374.2,10.5c-0.1,1,75.5,279.6,29.1,437.6
				c0,0,0.5,41.1-86.9,126.2c-85.8,83.6,169.3,58.7,169.3,58.7l53.8-322.6l-15-241.3L452-49.6L374.2,10.5z"/>
		</defs>
		<clipPath id="SVGID_00000112620588142464303950000000220124064600724649_">
			<use xlink:href="#SVGID_00000153684261150860034680000004065255199734548906_"  style="overflow:visible;"/>
		</clipPath>
		<path style="clip-path:url(#SVGID_00000112620588142464303950000000220124064600724649_);fill:#D43740;" d="M459,264.5
			c0,39.1,0,78.1,0,117.2c-0.1,94.5-60.2,175.6-142.6,192.7c-94.1,19.5-185.1-49.1-202.9-155.1c-12.6-75.2,23.2-120.9,58.8-148.9
			c22.2-22,34.3-89.8,33.8-122.9c-0.9-67.7,41.4-129.2,103-142.4c67-14.3,131.6,33.9,146.8,108.5c2.1,10.5,3.1,21.1,3.1,31.9
			C458.9,185.2,459,224.8,459,264.5z"/>
	</g>
</g>
</svg>
