<?xml version="1.0" encoding="utf-8"?>
<!-- Generator: Adobe Illustrator 27.0.1, SVG Export Plug-In . SVG Version: 6.00 Build 0)  -->
<svg version="1.1" id="Lag_1" xmlns="http://www.w3.org/2000/svg" xmlns:xlink="http://www.w3.org/1999/xlink" x="0px" y="0px"
	 viewBox="0 0 579 579" style="enable-background:new 0 0 579 579;" xml:space="preserve">
<style type="text/css">
	.st0{fill:#D8D8D7;}
	.st1{clip-path:url(#SVGID_00000000188831753304616080000002974088679148123035_);fill:#D8D8D7;}
	.st2{clip-path:url(#SVGID_00000000188831753304616080000002974088679148123035_);fill:#6F6F6E;}
	.st3{fill:#747473;}
	
		.st4{clip-path:url(#SVGID_00000142877920194386868210000002737806049380590724_);fill:none;stroke:#3C3C3B;stroke-width:3;stroke-miterlimit:10;}
	.st5{clip-path:url(#SVGID_00000142877920194386868210000002737806049380590724_);fill:#3C3C3B;}
	.st6{fill:#FDF0ED;}
	.st7{clip-path:url(#SVGID_00000007387512270774698740000014226762057156744083_);fill:#FDF0ED;}
	.st8{clip-path:url(#SVGID_00000007387512270774698740000014226762057156744083_);fill:#F9D1C9;}
	.st9{fill:#F9DA9E;}
	
		.st10{clip-path:url(#SVGID_00000031886148614851795710000006177243096895645100_);fill:none;stroke:#1D1D1B;stroke-width:3;stroke-miterlimit:10;}
	.st11{clip-path:url(#SVGID_00000031886148614851795710000006177243096895645100_);fill:#F8C680;}
	.st12{fill:#3C3C3B;}
	.st13{clip-path:url(#SVGID_00000088124268269417572910000014480198336675876516_);fill:#3C3C3B;}
	.st14{fill:#E84A4D;}
	.st15{fill:#F9D1C9;}
	.st16{clip-path:url(#SVGID_00000015325199961799053970000007749386377762417330_);fill:#D43740;}
	.st17{clip-path:url(#SVGID_00000008116514338926307080000009165838368544638888_);fill:#3C3C3B;}
	.st18{clip-path:url(#SVGID_00000027569889072079863480000002797935410563229113_);fill:#F8C680;}
	.st19{fill:#F8C680;}
	.st20{clip-path:url(#SVGID_00000069379884608175979450000003645166234310504377_);fill:#3C3C3B;}
	.st21{clip-path:url(#SVGID_00000154410052494770135450000009467282892835077009_);fill:#3C3C3B;}
	.st22{fill:#24B19D;}
	.st23{clip-path:url(#SVGID_00000114046018080945094030000008868854229017391807_);fill:#00A28F;}
	.st24{clip-path:url(#SVGID_00000085965155870440512540000005017788890929244595_);fill:#00A28F;}
	.st25{fill-rule:evenodd;clip-rule:evenodd;fill:#3C3C3B;}
	.st26{fill-rule:evenodd;clip-rule:evenodd;fill:#747473;}
	
		.st27{clip-path:url(#SVGID_00000073721535770878584340000004889500697661254821_);fill-rule:evenodd;clip-rule:evenodd;fill:#3C3C3B;}
	.st28{fill-rule:evenodd;clip-rule:evenodd;fill:#E84A4C;}
	.st29{fill-rule:evenodd;clip-rule:evenodd;fill:#F9DA9E;}
	.st30{fill-rule:evenodd;clip-rule:evenodd;fill:#F8C680;}
	
		.st31{clip-path:url(#SVGID_00000041276548606005307520000002528673448338702000_);fill-rule:evenodd;clip-rule:evenodd;fill:#F8C680;}
	.st32{fill:#E20613;}
</style>
<g>
	<path class="st3" d="M451,264.5c0,39.1,0,78.1,0,117.2c-0.1,94.5-60.2,175.6-142.6,192.7c-94.1,19.5-185.1-49.1-202.9-155.1
		c-12.6-75.2,23.2-120.9,58.8-148.9c22.2-22,34.3-89.8,33.8-122.9c-0.9-67.7,41.4-129.2,103-142.4c67-14.3,131.6,33.9,146.8,108.5
		c2.1,10.5,3.1,21.1,3.1,31.9C450.9,185.2,451,224.8,451,264.5z"/>
	<circle class="st12" cx="190.4" cy="407.8" r="46.2"/>
	<g>
		<defs>
			<path id="SVGID_00000065036586619369270000000002225332210876397199_" d="M366.1,10.5c-0.1,1,75.5,279.6,29.1,437.6
				c0,0,0.5,41.1-86.9,126.2c-85.8,83.6,169.3,58.7,169.3,58.7l53.8-322.6l-15-241.3L444-49.6L366.1,10.5z"/>
		</defs>
		<clipPath id="SVGID_00000039844546127947702200000018190770538474283708_">
			<use xlink:href="#SVGID_00000065036586619369270000000002225332210876397199_"  style="overflow:visible;"/>
		</clipPath>
		<path style="clip-path:url(#SVGID_00000039844546127947702200000018190770538474283708_);fill:#3C3C3B;" d="M451,264.5
			c0,39.1,0,78.1,0,117.2c-0.1,94.5-60.2,175.6-142.6,192.7c-94.1,19.5-185.1-49.1-202.9-155.1c-12.6-75.2,23.2-120.9,58.8-148.9
			c22.2-22,34.3-89.8,33.8-122.9c-0.9-67.7,41.4-129.2,103-142.4c67-14.3,131.6,33.9,146.8,108.5c2.1,10.5,3.1,21.1,3.1,31.9
			C450.9,185.2,451,224.8,451,264.5z"/>
	</g>
</g>
</svg>
