<?xml version="1.0" encoding="utf-8"?>
<!-- Generator: Adobe Illustrator 27.0.1, SVG Export Plug-In . SVG Version: 6.00 Build 0)  -->
<svg version="1.1" id="Lag_1" xmlns="http://www.w3.org/2000/svg" xmlns:xlink="http://www.w3.org/1999/xlink" x="0px" y="0px"
	 viewBox="0 0 579 579" style="enable-background:new 0 0 579 579;" xml:space="preserve">
<style type="text/css">
	.st0{fill:#D8D8D7;}
	.st1{clip-path:url(#SVGID_00000023265081268408282620000008988995492731190461_);fill:#D8D8D7;}
	.st2{clip-path:url(#SVGID_00000023265081268408282620000008988995492731190461_);fill:#6F6F6E;}
	.st3{fill:#747473;}
	
		.st4{clip-path:url(#SVGID_00000050658085789267380060000004208038357444946109_);fill:none;stroke:#3C3C3B;stroke-width:3;stroke-miterlimit:10;}
	.st5{clip-path:url(#SVGID_00000050658085789267380060000004208038357444946109_);fill:#3C3C3B;}
	.st6{fill:#FDF0ED;}
	.st7{clip-path:url(#SVGID_00000009573047415068667500000000794614959510822553_);fill:#FDF0ED;}
	.st8{clip-path:url(#SVGID_00000009573047415068667500000000794614959510822553_);fill:#F9D1C9;}
	.st9{fill:#F9DA9E;}
	
		.st10{clip-path:url(#SVGID_00000180333969383837966880000014559001953279782574_);fill:none;stroke:#1D1D1B;stroke-width:3;stroke-miterlimit:10;}
	.st11{clip-path:url(#SVGID_00000180333969383837966880000014559001953279782574_);fill:#F8C680;}
	.st12{fill:#3C3C3B;}
	.st13{clip-path:url(#SVGID_00000177450242559140102270000000242109918693253767_);fill:#3C3C3B;}
	.st14{fill:#E84A4D;}
	.st15{fill:#F9D1C9;}
	.st16{clip-path:url(#SVGID_00000159435332380349439420000010801590687864445353_);fill:#D43740;}
	.st17{clip-path:url(#SVGID_00000164489744402293330290000014679021100491901338_);fill:#3C3C3B;}
	.st18{clip-path:url(#SVGID_00000137815669991495678840000014469876498931500694_);fill:#F8C680;}
	.st19{fill:#F8C680;}
	.st20{clip-path:url(#SVGID_00000136411250300745286940000017190447297038055605_);fill:#3C3C3B;}
	.st21{clip-path:url(#SVGID_00000096061175148389812290000016164878075771317154_);fill:#3C3C3B;}
	.st22{fill:#24B19D;}
	.st23{clip-path:url(#SVGID_00000052794679322813084470000011939941359246318507_);fill:#00A28F;}
	.st24{clip-path:url(#SVGID_00000126324862310586091300000008227269827737360815_);fill:#00A28F;}
	.st25{fill-rule:evenodd;clip-rule:evenodd;fill:#3C3C3B;}
	.st26{fill-rule:evenodd;clip-rule:evenodd;fill:#747473;}
	
		.st27{clip-path:url(#SVGID_00000176765065375449283790000015832104493941796528_);fill-rule:evenodd;clip-rule:evenodd;fill:#3C3C3B;}
	.st28{fill-rule:evenodd;clip-rule:evenodd;fill:#E84A4C;}
	.st29{fill-rule:evenodd;clip-rule:evenodd;fill:#F9DA9E;}
	.st30{fill-rule:evenodd;clip-rule:evenodd;fill:#F8C680;}
	
		.st31{clip-path:url(#SVGID_00000136386839441015061340000013915993181353366970_);fill-rule:evenodd;clip-rule:evenodd;fill:#F8C680;}
	.st32{fill:#E20613;}
</style>
<g>
	<path class="st3" d="M178,408.6c-31.2-30-50.7-72.3-50.7-119.2c0-90.8,72.9-164.4,162.9-164.4c15.7,0,30.9,2.2,45.3,6.4
		c7.2,2.1,17.7,0.5,23.5-9.7c5.8-10.1,37.8-67,43.1-76.7C409.5,31.8,401.8,18,385,18H275.9C127.4,18,7.1,139.6,7.1,289.4
		c0,61.2,20.1,117.7,54,163.1c-11.1,19.6-41.8,74.6-51.4,91.6c-5.1,9-2.5,16.8,8.6,16.8h81.8c9.8,0,14.1-4.5,18.7-12.5
		c5.1-9.4,49.1-87.6,62.4-110.8C185.4,430.2,190.2,420.4,178,408.6"/>
	<path class="st3" d="M402.5,170.4c31.2,30,50.7,72.3,50.7,119.2c0,90.8-72.9,164.4-162.9,164.4c-15.7,0-30.9-2.2-45.3-6.4
		c-7.2-2.1-17.7-0.5-23.5,9.7c-5.8,10.1-37.8,67-43.1,76.7c-7.4,13.3,0.3,27.1,17.1,27.1h109.1c148.5,0,268.8-121.6,268.8-271.4
		c0-61.2-20.1-117.7-54-163.1c11.1-19.6,41.8-74.6,51.4-91.6c5.1-9,2.5-16.8-8.6-16.8h-81.8c-9.8,0-14.1,4.5-18.7,12.5
		c-5.1,9.4-49.1,87.6-62.4,110.8C395,148.8,390.2,158.6,402.5,170.4"/>
	<path class="st3" d="M305.7,196.3c0,8.6-6.9,15.6-15.5,15.6c-8.5,0-15.5-7-15.5-15.6c0-8.6,6.9-15.6,15.5-15.6
		C298.8,180.6,305.7,187.6,305.7,196.3"/>
	<rect x="199.2" y="352.4" class="st3" width="182.2" height="22.3"/>
	<path class="st3" d="M171.3,309.7c6.3,9.3,11.5,14.6,17.4,21l10.6,11.6h182.2l10.4-11.6c6-6.4,12.2-13,17.5-21
		c24.9-37.5-4.6-77-38.7-74.4c-0.6,0-1.2,0.1-1.9,0.1c-1.1-1.7-2.2-3.5-3.6-5.3c-10.9-14.7-29.2-21.2-47.6-17
		c-11.1,2.5-20.6,8.4-27.3,16.7c-6.7-8.2-16.2-14.1-27.3-16.7c-18.5-4.2-36.7,2.3-47.6,17c-1.3,1.8-2.5,3.6-3.6,5.3
		c-0.6,0-1.9-0.1-1.9-0.1C178.9,232,144.9,270.7,171.3,309.7 M278.8,255.5c-20.8-1.7-34.1-7.8-45.1-12.9c0,0-0.1,0-0.1-0.1
		c5.8-7.2,15-10.1,24.7-7.9c8.2,1.9,17.9,8.1,20.4,20.1C278.7,254.9,278.8,255.2,278.8,255.5 M347.1,242.5c0,0-0.1,0-0.1,0.1
		c-11,5.1-24.3,11.3-45.1,12.9c0-0.3,0-0.6,0.1-0.8c2.5-12,12.2-18.3,20.4-20.1C332.2,232.4,341.3,235.3,347.1,242.5 M338.4,320.2
		c9.3-9.9,20.3-23.4,23-26.9c2.6-3.3,15.5-17.3,14.7-35.6c15.7,2.1,20.7,15.2,20.7,21.9c0,4.8-1.6,11.8-5.5,17.7
		c-4.3,6.5-9.7,12.2-15.3,18.3c0,0-2.1,2.3-4.2,4.6H338.4z M301.4,277.6c24.3-1.6,40.8-8.6,52.3-13.9c-1.2,4.9-6.3,11.9-8.3,14.4
		c-7.6,9.4-28,32.5-37.2,42.1h-6.8C301.4,320.2,301.3,286.6,301.4,277.6 M272.6,320.2c-9.2-9.6-31.8-35.1-35.7-40.2
		c-4-5.1-8.6-11.4-9.8-16.3c11.6,5.3,28,12.3,52.3,13.9c0.1,9,0,42.5,0,42.5H272.6z M183.9,279.6c0-9.8,7.8-20.2,20.7-21.9
		c-0.7,16.1,7.6,26.3,13.7,34.1c5.8,7.4,14.8,18.4,24.1,28.3h-33.5c-2.1-2.3-4.2-4.6-4.2-4.6c-5.6-6.1-11-11.8-15.3-18.3
		C185.4,291.4,183.9,284.5,183.9,279.6"/>
</g>
</svg>
