<svg width="313" height="43" viewBox="0 0 313 43" fill="none" xmlns="http://www.w3.org/2000/svg">
<path d="M311.82 0.851366C311.609 0.651432 311.345 0.508447 311.055 0.437137C310.766 0.365827 310.461 0.368772 310.173 0.445668H310.157L289.971 6.23681C289.642 6.32616 289.35 6.50803 289.133 6.7582C288.917 7.00838 288.786 7.31499 288.758 7.6372C288.731 7.95942 288.808 8.28195 288.979 8.56185C289.15 8.84175 289.407 9.06573 289.716 9.20397L298.721 13.2361L302.986 21.7498C303.12 22.0224 303.335 22.253 303.603 22.4142C303.872 22.5754 304.184 22.6606 304.502 22.6596C304.551 22.6596 304.599 22.6576 304.647 22.6537C304.987 22.6277 305.31 22.5041 305.573 22.2995C305.837 22.0949 306.027 21.8191 306.12 21.5092L312.241 2.42345C312.241 2.41847 312.241 2.4135 312.241 2.40853C312.323 2.13703 312.328 1.8497 312.254 1.57603C312.18 1.30237 312.03 1.05225 311.82 0.851366ZM304.512 21.0537L304.507 21.0677L300.367 12.8055L305.335 8.1072C305.486 7.9568 305.569 7.75654 305.567 7.5491C305.564 7.34167 305.475 7.14348 305.32 6.99679C305.165 6.8501 304.955 6.76652 304.736 6.76387C304.517 6.76121 304.305 6.83969 304.146 6.98258L299.176 11.6799L290.437 7.76613H290.451L310.63 1.97698L304.512 21.0537Z" fill="white"/>
<path d="M1 32.2794C21.296 22.2597 71.6062 5.22601 110.479 17.2498C159.069 32.2795 232.855 63.9208 294.643 17.2498" stroke="white" stroke-dasharray="6 4"/>
</svg>
