<?xml version="1.0" encoding="utf-8"?>
<!-- Generator: Adobe Illustrator 27.5.0, SVG Export Plug-In . SVG Version: 6.00 Build 0)  -->
<svg version="1.1" id="Layer_1" xmlns="http://www.w3.org/2000/svg" xmlns:xlink="http://www.w3.org/1999/xlink" x="0px" y="0px"
	 viewBox="0 0 1440 320" style="enable-background:new 0 0 1440 320;" xml:space="preserve">
<style type="text/css">
	.st0{fill:#58181F;}
</style>
<path class="st0" d="M1440,0v320h-80c-80,0-240,0-400,0s-320,0-480,0s-320,0-400,0H0V0l179.9,13.8c18.6,1.4,36.9,5.4,54.4,11.7
	c135,48.9,204.8,65.3,390.9,18.1c15-3.8,30.4-5.5,45.9-5.1c134,3.5,172.3,69.8,313.8,50.2c7-1,13.9-2.6,20.5-4.8l171.5-57
	c26.4-8.8,53.9-14.1,81.7-15.8L1440,0z"/>
</svg>
