<svg width="280" height="864" viewBox="0 0 280 864" fill="none" xmlns="http://www.w3.org/2000/svg">
<path fill-rule="evenodd" clip-rule="evenodd" d="M6.3183 835.882L0 329.383C1.82816 272.872 92.1447 246.949 92.1447 211.954V48.4868H89.5468C85.9546 48.4868 83.036 46.1278 83.036 43.2245V24.2752C83.036 21.3718 85.9546 19.0129 89.5468 19.0129H92.1447V6.20719V6.05166V5.89612L92.1767 5.74059V5.58505L92.2409 5.42952V5.27398L92.305 5.11845V4.96291L92.4012 4.80738L92.4654 4.65184L92.5295 4.49631L92.5937 4.34077L92.6578 4.18524L92.722 4.0297L92.7861 3.90009L92.8503 3.74456L92.9144 3.61494L93.0106 3.48533C93.1389 3.30387 93.2351 3.12242 93.3955 2.94096C94.3256 1.77445 95.7047 0.867161 97.3083 0.374634L97.5008 0.322789L97.6932 0.270944L97.8857 0.219099L98.0781 0.167254H98.2705L98.463 0.0894862H98.6554V0.0635637H98.8478L99.0403 0.0117188H99.2327H99.4251H99.6176H99.81H100.002H176.367H176.656H176.945L177.233 0.0635637H177.522C177.714 0.115409 177.907 0.141331 178.099 0.167254C182.237 0.763471 185.668 3.14834 187.08 6.28496L187.176 6.49234C187.432 7.08856 187.593 7.68477 187.689 8.33284V8.56614L187.753 8.79944V9.03274V9.26605V9.49935V18.987H190.351C193.943 18.987 196.862 21.3459 196.862 24.2492V43.1986C196.862 46.1019 193.943 48.4608 190.351 48.4608H187.753V211.928C187.849 248.09 280.86 271.083 279.994 329.383L272.97 835.908C272.778 850.891 257.575 863.075 239.005 863.075H40.3153C21.7132 863.075 6.54282 850.917 6.35037 835.882H6.3183ZM177.554 0.0894862L178.131 0.167254C177.939 0.141331 177.746 0.115409 177.554 0.0894862Z" fill="#FFDC97"/>
</svg>
