<svg width="55" height="212" viewBox="0 0 55 212" fill="none" xmlns="http://www.w3.org/2000/svg">
<g clip-path="url(#clip0_103_371)">
<path fill-rule="evenodd" clip-rule="evenodd" d="M53.7591 204.658L55.0002 80.6447C54.6411 66.8083 36.9 60.4613 36.9 51.8929V11.8688H37.4103C38.1159 11.8688 38.6892 11.2913 38.6892 10.5804V5.94077C38.6892 5.22991 38.1159 4.65233 37.4103 4.65233H36.9V1.51693V1.47885V1.44076L36.8937 1.40268V1.3646L36.8811 1.32652V1.28844L36.8685 1.25035V1.21227L36.8496 1.17419L36.837 1.13611L36.8244 1.09803L36.8118 1.05995L36.7992 1.02186L36.7866 0.983781L36.774 0.952047L36.7614 0.913965L36.7488 0.88223L36.7299 0.850495C36.7047 0.806066 36.6858 0.761637 36.6543 0.717208C36.4716 0.431594 36.2007 0.20945 35.8857 0.0888577L35.8479 0.0761637L35.8101 0.0634698L35.7723 0.0507758L35.7345 0.0380819H35.6967L35.6589 0.0190409H35.6211V0.012694H35.5832L35.5454 0H35.5076H35.4698H35.432H35.3942H35.3564H20.3559H20.2992H20.2425L20.1858 0.012694H20.1291C20.0913 0.0253879 20.0535 0.0317349 20.0157 0.0380819C19.203 0.184062 18.5288 0.767984 18.2516 1.53597L18.2327 1.58674C18.1823 1.73272 18.1508 1.87871 18.1319 2.03738V2.0945L18.1193 2.15163V2.20875V2.26587V2.32299V4.64599H17.609C16.9034 4.64599 16.3301 5.22356 16.3301 5.93442V10.5741C16.3301 11.2849 16.9034 11.8625 17.609 11.8625H18.1193V51.8865C18.1004 60.7406 -0.169899 66.3703 0.000203895 80.6447L1.37993 204.665C1.41773 208.333 4.40398 211.316 8.05175 211.316H47.081C50.735 211.316 53.715 208.34 53.7528 204.658H53.7591ZM20.1228 0.0190409L20.0094 0.0380819C20.0472 0.0317349 20.085 0.0253879 20.1228 0.0190409Z" fill="#E94A4C"/>
</g>
<defs>
<clipPath id="clip0_103_371">
<rect width="55" height="211.316" fill="white"/>
</clipPath>
</defs>
</svg>
