<svg width="55" height="212" viewBox="0 0 55 212" fill="none" xmlns="http://www.w3.org/2000/svg">
<g clip-path="url(#clip0_142_76)">
<path fill-rule="evenodd" clip-rule="evenodd" d="M53.7591 204.694L55.0002 80.8658C54.6411 67.0501 36.9 60.7126 36.9 52.157V12.1929H37.4103C38.1159 12.1929 38.6892 11.6162 38.6892 10.9064V6.27368C38.6892 5.56388 38.1159 4.98717 37.4103 4.98717H36.9V1.85645V1.81843V1.7804L36.8937 1.74238V1.70435L36.8811 1.66633V1.6283L36.8685 1.59028V1.55226L36.8496 1.51423L36.837 1.47621L36.8244 1.43818L36.8118 1.40016L36.7992 1.36213L36.7866 1.32411L36.774 1.29242L36.7614 1.25439L36.7488 1.22271L36.7299 1.19102C36.7047 1.14666 36.6858 1.10229 36.6543 1.05793C36.4716 0.772745 36.2007 0.550934 35.8857 0.430522L35.8479 0.417847L35.8101 0.405172L35.7723 0.392497L35.7345 0.379822H35.6967L35.6589 0.360809H35.6211V0.354472H35.5832L35.5454 0.341797H35.5076H35.4698H35.432H35.3942H35.3564H20.3559H20.2992H20.2425L20.1858 0.354472H20.1291C20.0913 0.367147 20.0535 0.373484 20.0157 0.379822C19.203 0.525584 18.5288 1.10863 18.2516 1.87547L18.2327 1.92617C18.1823 2.07193 18.1508 2.21769 18.1319 2.37613V2.43316L18.1193 2.4902V2.54724V2.60428V2.66131V4.98083H17.609C16.9034 4.98083 16.3301 5.55754 16.3301 6.26734V10.9C16.3301 11.6098 16.9034 12.1865 17.609 12.1865H18.1193V52.1507C18.1004 60.9915 -0.169899 66.6128 0.000203895 80.8658L1.37993 204.7C1.41773 208.363 4.40398 211.342 8.05175 211.342H47.081C50.735 211.342 53.715 208.37 53.7528 204.694H53.7591ZM20.1228 0.360809L20.0094 0.379822C20.0472 0.373484 20.085 0.367147 20.1228 0.360809Z" fill="#FFDC97"/>
</g>
<defs>
<clipPath id="clip0_142_76">
<rect width="55" height="211" fill="white" transform="translate(0 0.341797)"/>
</clipPath>
</defs>
</svg>
