<svg width="356" height="1757" viewBox="0 0 356 1757" fill="none" xmlns="http://www.w3.org/2000/svg">
<g clip-path="url(#clip0_98_16)">
<path fill-rule="evenodd" clip-rule="evenodd" d="M10.3588 1701.64L0.00109863 670.524C2.99799 555.481 151.056 502.709 151.056 431.466V98.6842H146.797C140.908 98.6842 136.124 93.8819 136.124 87.9714V49.3948C136.124 43.4843 140.908 38.6821 146.797 38.6821H151.056V12.6126V12.2959V11.9793L151.108 11.6627V11.346L151.213 11.0294V10.7128L151.319 10.3961V10.0795L151.476 9.76287L151.582 9.44624L151.687 9.1296L151.792 8.81297L151.897 8.49634L152.002 8.1797L152.107 7.91584L152.212 7.59921L152.318 7.33535L152.475 7.07148C152.686 6.70208 152.843 6.33267 153.106 5.96327C154.631 3.58851 156.892 1.74148 159.521 0.738812L159.836 0.633267L160.152 0.527723L160.467 0.422178L160.783 0.316634H161.098L161.413 0.158317H161.729V0.105545H162.044L162.36 0H162.675H162.991H163.306H163.622H163.937H289.124H289.597H290.07L290.543 0.105545H291.017C291.332 0.211089 291.647 0.263861 291.963 0.316634C298.745 1.5304 304.371 6.38544 306.685 12.7709L306.842 13.1931C307.263 14.4068 307.526 15.6206 307.684 16.9399V17.4148L307.789 17.8898V18.3647V18.8397V19.3147V38.6293H312.047C317.936 38.6293 322.721 43.4316 322.721 49.3421V87.9186C322.721 93.8291 317.936 98.6314 312.047 98.6314H307.789V431.413C307.946 505.031 460.421 551.84 459.001 670.524L447.487 1701.69C447.171 1732.2 422.25 1757 391.807 1757H66.0908C35.5959 1757 10.7269 1732.25 10.4114 1701.64H10.3588ZM291.069 0.158317L292.016 0.316634C291.7 0.263861 291.385 0.211089 291.069 0.158317Z" fill="#FFDC97"/>
</g>
<defs>
<clipPath id="clip0_98_16">
<rect width="459" height="1757" fill="white" transform="matrix(-1 0 0 1 459 0)"/>
</clipPath>
</defs>
</svg>
