<?xml version="1.0" encoding="utf-8"?>
<!-- Generator: Adobe Illustrator 27.0.1, SVG Export Plug-In . SVG Version: 6.00 Build 0)  -->
<svg version="1.1" id="Lag_1" xmlns="http://www.w3.org/2000/svg" xmlns:xlink="http://www.w3.org/1999/xlink" x="0px" y="0px"
	 viewBox="0 0 208.2 354.1" style="enable-background:new 0 0 208.2 354.1;" xml:space="preserve">
<style type="text/css">
	.st0{fill-rule:evenodd;clip-rule:evenodd;fill:#F18F97;}
	.st1{fill:#F18F97;}
	.st2{fill:#FDF0D5;}
	.st3{fill-rule:evenodd;clip-rule:evenodd;fill:#E94A4C;}
	.st4{fill:#E94A4C;}
	.st5{fill:#B22820;}
</style>
<g>
	<path class="st0" d="M102.3,330.1l2-195.4c-0.6-21.8-28.7-31.8-28.7-45.3V71.2V26.3h0.8c1.1,0,2-0.9,2-2V17c0-1.1-0.9-2-2-2h-0.8
		v-4.9l0-0.1l0-0.1l0-0.1l0-0.1l0-0.1l0-0.1l0-0.1l0-0.1l0-0.1l0-0.1l0-0.1l0-0.1l0-0.1l0-0.1l0-0.1h0l0-0.1l0,0l0-0.1l0-0.1h0
		l0-0.1h0c0-0.1-0.1-0.1-0.1-0.2c-0.3-0.4-0.7-0.8-1.2-1l-0.1,0h0l-0.1,0l0,0l-0.1,0h0l-0.1,0h0l-0.1,0l0,0l-0.1,0l0,0l-0.1,0h0
		l-0.1,0l-0.1,0l-0.1,0h0l-0.1,0l-0.1,0h0l-0.1,0l-0.1,0H49.4l-0.1,0l-0.1,0h0l-0.1,0l-0.1,0l0,0l-0.1,0c-0.1,0-0.1,0-0.2,0h0
		c-1.3,0.2-2.4,1.1-2.8,2.4l0,0l0,0.1v0c-0.1,0.2-0.1,0.5-0.2,0.7l0,0.1l0,0.1v0l0,0.1l0,0.1l0,0.1V15h-0.8c-1.1,0-2,0.9-2,2v7.3
		c0,1.1,0.9,2,2,2h0.8v44.9v18.2c0,13.9-29,22.8-28.7,45.3l2.2,195.4c0.1,5.8,4.8,10.5,10.6,10.5h62
		C97.5,340.6,102.2,335.9,102.3,330.1L102.3,330.1z M48.9,7.7L48.9,7.7l-0.2,0C48.8,7.7,48.8,7.7,48.9,7.7z"/>
</g>
<g>
	<polygon class="st1" points="169.9,330.1 144.2,330.1 167,322 163.3,247.2 176.5,247.2 172.8,322 195.6,330.1 169.9,330.1 	"/>
	<path class="st1" d="M197.7,135.1h-26.2h-3.1h-26.2c0,0-4.5,94.5,20.3,112.1h7.4h0.1h7.4C202.1,229.6,197.7,135.1,197.7,135.1z"/>
	<rect x="144.2" y="330.1" class="st1" width="51.3" height="4.4"/>
	<path class="st2" d="M147.9,135.3c0,0-8.1,104.5,22,104.5s22.8-104.4,22.8-104.4L147.9,135.3z"/>
	<path class="st1" d="M193.5,151.1c-0.2-9.7-0.7-16-0.7-16l-45.3,0.2c0,0-0.7,5.7-1,15.8H193.5z"/>
	<polygon class="st1" points="167.7,250.1 169.9,319.1 172.1,250.1 	"/>
</g>
</svg>
