<?xml version="1.0" encoding="utf-8"?>
<!-- Generator: Adobe Illustrator 27.0.1, SVG Export Plug-In . SVG Version: 6.00 Build 0)  -->
<svg version="1.1" id="Lag_1" xmlns="http://www.w3.org/2000/svg" xmlns:xlink="http://www.w3.org/1999/xlink" x="0px" y="0px"
	 viewBox="0 0 779 186.1" style="enable-background:new 0 0 779 186.1;" xml:space="preserve">
<style type="text/css">
	.st0{fill-rule:evenodd;clip-rule:evenodd;fill:#F18F97;}
	.st1{enable-background:new    ;}
	.st2{fill:#FEF1EE;}
</style>
<g>
	<path class="st0" d="M37.3,169.6l442.9,3.8c49.4-1.1,72.1-54.6,102.7-54.6h41.2h101.7v1.5c0,2.1,2.1,3.9,4.6,3.9H747
		c2.5,0,4.6-1.7,4.6-3.9v-1.5h11h0.1h0.1h0.1h0.1h0.1h0.1h0.1h0.1h0.1h0.1h0.1h0.1h0.1h0.1h0.1l0,0h0.1l0,0h0.1h0.1l0,0h0.1l0,0
		c0.2-0.1,0.3-0.1,0.5-0.2c1-0.5,1.8-1.4,2.2-2.3v-0.1l0,0v-0.1l0,0V116l0,0v-0.1l0,0v-0.1l0,0v-0.1l0,0v-0.1l0,0v-0.1v-0.1v-0.1
		l0,0v-0.1v-0.1l0,0V115v-0.1v-46v-0.2v-0.2l0,0v-0.2v-0.2l0,0v-0.2c0-0.1,0-0.2-0.1-0.3l0,0c-0.5-2.5-2.6-4.5-5.3-5.3l0,0l-0.2-0.1
		l0,0c-0.5-0.1-1.1-0.3-1.6-0.3h-0.2h-0.2l0,0h-0.2h-0.2H759h-8.3v-1.5c0-2.1-2.1-3.9-4.6-3.9h-16.6c-2.5,0-4.6,1.7-4.6,3.9v1.5
		H623.2H582c-31.6,0-51.7-55.2-102.7-54.6l-442,4.1c-13.1,0.1-23.8,9.1-23.8,20.1v117.8C13.5,160.5,24.1,169.5,37.3,169.6
		L37.3,169.6z M768.1,68L768.1,68l-0.1-0.3C768.1,67.8,768.1,67.9,768.1,68z"/>
</g>
<g class="st1">
	<path class="st2" d="M528.3,103.9c-1-1.3-1.6-2.8-1.6-4.7c0-1.9,0.2-5.2,0.7-9.9c0.5-4.7,0.7-8.1,0.7-10.1s-0.2-3.6-0.7-4.7
		l-2.1-3.9l0.2-0.8c2.8-0.6,6.2-0.9,10.2-0.9c0.3,1.3,0.5,3.3,0.5,6c0,2.7-0.3,6.6-1,11.7c-0.7,5.1-1,8.5-1,10.2
		c0,1.7,0.5,2.5,1.6,2.5c1.1,0,2.4-0.9,4-2.7c1.6-1.8,3.2-4.2,4.7-7.1s2.4-5.8,2.8-8.5l-5.4-3.2c0.3-2.6,0.9-4.6,1.9-6.2
		c0.9-1.4,1.6-2.2,2.2-2.6l0.4-0.3c2.1,0,3.6,0.5,4.7,1.6c1.1,1.1,1.6,2.4,1.6,3.9c0,3.7-1.1,8-3.3,13c-2.2,5-5,9.3-8.3,12.9
		c-3.3,3.7-6.3,5.5-9.1,5.5C530.6,105.8,529.3,105.2,528.3,103.9z"/>
	<path class="st2" d="M562.9,85.8c0,1.4-0.5,3.9-1.4,7.4c-0.9,3.5-1.4,5.8-1.4,6.8c0,1.1,0.2,1.6,0.5,1.6c0.2,0,1-0.3,2.3-1l0.6-0.3
		l0.9,1.8c-0.3,0.3-0.7,0.6-1.2,1c-0.5,0.4-1.5,1-2.9,1.7c-1.4,0.7-2.7,1-3.9,1s-2.1-0.4-2.8-1.1c-0.7-0.7-1-1.7-1-3
		c0-1.2,0.4-3.4,1.3-6.6c0.8-3.2,1.3-5.2,1.3-6.2c0-1.4-0.4-2.8-1.3-4l-0.5-0.6l0.1-0.7c1.8-0.5,4.7-0.8,8.8-0.8
		C562.7,83.4,562.9,84.4,562.9,85.8z M557.1,77.3c-0.7-0.7-1-1.6-1-2.7c0-1.1,0.5-2.1,1.4-3c0.9-0.8,2-1.3,3.2-1.3s2.2,0.3,2.9,1
		c0.7,0.7,1,1.6,1,2.7c0,1.1-0.5,2.1-1.5,2.9s-2,1.3-3.2,1.3S557.8,78,557.1,77.3z"/>
	<path class="st2" d="M567.6,105.3h-1c0-1.6,0.5-4.7,1.5-9.2c1-4.5,1.5-7.1,1.5-7.7c0-1.1-0.5-2.3-1.4-3.6l-0.5-0.6l0.1-0.7
		c1.8-0.5,4.8-0.8,8.8-0.8c0.4,0.6,0.7,1.6,0.7,3.2c3-2.3,5.5-3.4,7.5-3.4c1.2,0,2.2,0.4,2.9,1.3c0.7,0.8,1.1,1.9,1.1,3.2
		c0,1.3-0.4,3.5-1.2,6.6c-0.8,3.1-1.2,5.2-1.2,6.3c0,1.1,0.1,1.6,0.4,1.6c0.2,0,0.9-0.3,2.1-1l0.6-0.3l0.9,1.8
		c-0.3,0.3-0.7,0.6-1.2,1c-0.5,0.4-1.5,1-2.8,1.7c-1.4,0.7-2.6,1-3.7,1c-2.5,0-3.7-1.4-3.7-4.2c0-1.2,0.4-3.4,1.1-6.6
		c0.8-3.2,1.1-5.2,1.1-6.2s-0.3-1.4-0.9-1.4c-1,0-2.2,0.4-3.6,1.3c-0.1,0.6-0.4,2.1-1,4.6c-1.2,5.3-1.8,9.1-1.8,11.3
		C572.8,105.1,570.7,105.3,567.6,105.3z"/>
	<path class="st2" d="M613.6,83c0.1,0.1,0.2,0.4,0.2,0.9c0,0.5,0,1-0.1,1.5c-0.1,0.5-0.2,1.7-0.4,3.5s-0.3,3.4-0.5,4.8
		c-1.7,15.3-6.4,22.9-14,22.9c-1.2,0-2.3-0.3-3.3-1c-1-0.6-1.5-1.5-1.5-2.5c0-1.4,0.8-2.6,2.5-3.7s3.9-2,6.7-2.6
		c0,0,0.1-0.5,0.3-1.4s0.3-1.7,0.4-2.2c-2,1.5-3.9,2.2-5.7,2.2c-1.8,0-3.2-0.7-4.4-2.1s-1.7-3.6-1.7-6.7c0-4,0.9-7.3,2.7-10
		c1.8-2.7,4.2-4,7.1-4c1.7,0,3.3,0.4,4.9,1.2c1.7-0.6,3.6-0.9,5.6-0.9L613.6,83z M598.5,110.7c-1.1,0.7-1.7,1.3-1.7,2
		c0,0.6,0.4,1,1.1,1s1.6-0.3,2.5-1c0.9-0.7,1.7-1.8,2.3-3.4C601,109.5,599.7,110,598.5,110.7z M604.3,85.6c-1.5,0-2.6,1.2-3.5,3.5
		c-0.8,2.4-1.3,5-1.3,7.8c0,2.9,0.6,4.3,1.9,4.3c0.8,0,1.9-0.3,3-1c1-5.7,1.6-10.4,2-14.1C605.6,85.8,604.8,85.6,604.3,85.6z"/>
	<path class="st2" d="M616.1,101.3c0-1.4,0.4-3.9,1.3-7.4s1.3-5.7,1.3-6.5s-0.6-1.9-1.8-3.2l0.1-0.7c2.3-0.5,5.3-0.7,9.1-0.7
		c0.2,0.4,0.3,1.2,0.3,2.4s-0.5,3.6-1.4,7.4c-1,3.8-1.4,6.1-1.4,7s0.3,1.4,1,1.4c1,0,2.1-0.4,3.4-1.1c0.1-0.8,0.5-2.4,1-4.7
		c1.2-5.4,1.8-9.3,1.8-11.7c1.2-0.5,3.3-0.7,6.4-0.7h1c0,1.6-0.5,4.7-1.4,9.3c-1,4.6-1.4,7.4-1.4,8.2c0,0.8,0.2,1.2,0.5,1.2
		c0.2,0,1.2-0.4,2.9-1.2l1,1.6c-3,2.5-5.7,3.8-7.9,3.8c-1.1,0-2-0.3-2.8-0.9c-0.8-0.6-1.2-1.4-1.3-2.4c-2.8,2.2-5.2,3.4-7.5,3.4
		c-1.2,0-2.2-0.4-2.9-1.2C616.5,103.9,616.1,102.8,616.1,101.3z"/>
	<path class="st2" d="M651.6,85.8c0,1.4-0.5,3.9-1.4,7.4c-0.9,3.5-1.4,5.8-1.4,6.8c0,1.1,0.2,1.6,0.5,1.6c0.2,0,1-0.3,2.3-1l0.6-0.3
		l0.9,1.8c-0.3,0.3-0.7,0.6-1.2,1s-1.5,1-2.9,1.7c-1.4,0.7-2.7,1-3.9,1c-1.2,0-2.1-0.4-2.8-1.1c-0.7-0.7-1-1.7-1-3
		c0-1.2,0.4-3.4,1.3-6.6c0.8-3.2,1.3-5.2,1.3-6.2c0-1.4-0.4-2.8-1.3-4l-0.5-0.6l0.1-0.7c1.8-0.5,4.7-0.8,8.8-0.8
		C651.4,83.4,651.6,84.4,651.6,85.8z M645.8,77.3c-0.7-0.7-1-1.6-1-2.7c0-1.1,0.5-2.1,1.4-3c0.9-0.8,2-1.3,3.2-1.3s2.2,0.3,2.9,1
		c0.7,0.7,1,1.6,1,2.7c0,1.1-0.5,2.1-1.5,2.9c-1,0.8-2,1.3-3.2,1.3C647.4,78.3,646.5,78,645.8,77.3z"/>
	<path class="st2" d="M679.1,102.1c-2.9,2.5-5.4,3.7-7.6,3.7c-2.2,0-3.5-1.1-3.8-3.3c-1,1-2.2,1.8-3.4,2.4c-1.3,0.6-2.4,0.9-3.3,0.9
		c-1.6,0-3-0.7-4.2-2.1S655,100,655,97c0-4.5,1-8,2.9-10.6c1.9-2.6,4-3.8,6.4-3.8s4.4,0.5,6,1.6c1.1-5.5,1.6-9.8,1.6-13l-0.3-2.1
		c2.5-0.9,5-1.3,7.5-1.3c0.3,0.6,0.4,1.2,0.4,2c0,2.5-0.7,7.5-2.2,15.1c-1.5,7.6-2.2,12.7-2.2,15.5c0,0.8,0.2,1.2,0.6,1.2
		c0.2,0,0.8-0.3,1.9-1l0.5-0.3L679.1,102.1z M666.8,85.6c-1.2,0-2.2,1.2-3.1,3.5c-0.9,2.3-1.3,4.7-1.3,7c0,2.3,0.2,3.8,0.5,4.4
		s0.8,1,1.5,1c1.1,0,2.2-0.5,3.3-1.4c0.1-1.4,0.9-5.9,2.3-13.6C668.8,85.9,667.8,85.6,666.8,85.6z"/>
	<path class="st2" d="M680.3,96.4c0-4.2,1.3-7.6,3.8-10.1c2.6-2.5,5.5-3.7,8.7-3.7c2,0,3.7,0.5,4.9,1.5c1.3,1,1.9,2.3,1.9,3.9
		s-0.4,3-1.2,4.2c-0.8,1.1-1.8,2-3,2.6c-2.4,1.2-4.6,1.9-6.6,2.2l-1.2,0.2c0.2,3.2,1.5,4.8,3.9,4.8c0.8,0,1.7-0.2,2.6-0.6
		c0.9-0.4,1.6-0.8,2.1-1.2l0.8-0.6l1.2,1.6c-0.3,0.4-0.8,0.9-1.6,1.5c-0.8,0.6-1.6,1.1-2.3,1.5c-2,1.1-4.1,1.6-6.5,1.6
		c-2.3,0-4.2-0.8-5.6-2.5S680.3,99.3,680.3,96.4z M691.7,92.5c1-1.2,1.5-2.6,1.5-4.5s-0.5-2.8-1.6-2.8c-1.3,0-2.3,1.1-3,3.3
		c-0.7,2.2-1,4.2-1,6.1C689.3,94.4,690.7,93.7,691.7,92.5z"/>
</g>
</svg>
