<?xml version="1.0" encoding="utf-8"?>
<!-- Generator: Adobe Illustrator 27.0.1, SVG Export Plug-In . SVG Version: 6.00 Build 0)  -->
<svg version="1.1" id="Lag_1" xmlns="http://www.w3.org/2000/svg" xmlns:xlink="http://www.w3.org/1999/xlink" x="0px" y="0px"
	 viewBox="0 0 208.2 354.1" style="enable-background:new 0 0 208.2 354.1;" xml:space="preserve">
<style type="text/css">
	.st0{fill-rule:evenodd;clip-rule:evenodd;fill:#F18F97;}
	.st1{fill:#F18F97;}
	.st2{fill:#FDF0D5;}
	.st3{fill-rule:evenodd;clip-rule:evenodd;fill:#E94A4C;}
	.st4{fill:#E94A4C;}
	.st5{fill:#B22820;}
</style>
<g>
	<path class="st0" d="M98.9,333l2-195.4c-0.6-21.8-28.7-31.8-28.7-45.3V74.2V29.3H73c1.1,0,2-0.9,2-2v-7.3c0-1.1-0.9-2-2-2h-0.8V13
		l0-0.1l0-0.1l0-0.1l0-0.1l0-0.1l0-0.1l0-0.1l0-0.1l0-0.1l0-0.1l0-0.1l0-0.1l0-0.1l0-0.1l0-0.1h0l0-0.1l0,0l0-0.1l0-0.1h0l0-0.1h0
		c0-0.1-0.1-0.1-0.1-0.2c-0.3-0.4-0.7-0.8-1.2-1l-0.1,0h0l-0.1,0l0,0l-0.1,0h0l-0.1,0h0l-0.1,0l0,0l-0.1,0l0,0l-0.1,0h0l-0.1,0
		l-0.1,0l-0.1,0h0l-0.1,0l-0.1,0h0l-0.1,0l-0.1,0H46l-0.1,0l-0.1,0h0l-0.1,0l-0.1,0l0,0l-0.1,0c-0.1,0-0.1,0-0.2,0h0
		c-1.3,0.2-2.4,1.1-2.8,2.4l0,0l0,0.1v0c-0.1,0.2-0.1,0.5-0.2,0.7l0,0.1l0,0.1v0l0,0.1l0,0.1l0,0.1v3.7h-0.8c-1.1,0-2,0.9-2,2v7.3
		c0,1.1,0.9,2,2,2h0.8v44.9v18.2c0,13.9-29,22.8-28.7,45.3L15.8,333c0.1,5.8,4.8,10.5,10.6,10.5h62C94.1,343.5,98.9,338.8,98.9,333
		L98.9,333z M45.5,10.6L45.5,10.6l-0.2,0C45.4,10.6,45.5,10.6,45.5,10.6z"/>
</g>
<g>
	<polygon class="st1" points="166.6,333 140.9,333 163.6,325 160,250.2 173.2,250.2 169.5,325 192.2,333 166.6,333 	"/>
	<path class="st1" d="M194.3,138.1h-26.2H165h-26.2c0,0-4.5,94.5,20.3,112.1h7.4h0.1h7.4C198.8,232.6,194.3,138.1,194.3,138.1z"/>
	<rect x="140.9" y="333" class="st1" width="51.3" height="4.4"/>
	<path class="st5" d="M144.5,138.3c0,0-8.1,104.5,22,104.5s22.8-104.4,22.8-104.4L144.5,138.3z"/>
	<path class="st1" d="M190.1,154.1c-0.2-9.7-0.7-16-0.7-16l-45.3,0.2c0,0-0.7,5.7-1,15.8H190.1z"/>
	<polygon class="st1" points="164.4,253.1 166.6,322 168.8,253.1 	"/>
</g>
</svg>
