<?xml version="1.0" encoding="utf-8"?>
<!-- Generator: Adobe Illustrator 27.0.1, SVG Export Plug-In . SVG Version: 6.00 Build 0)  -->
<svg version="1.1" id="Lag_1" xmlns="http://www.w3.org/2000/svg" xmlns:xlink="http://www.w3.org/1999/xlink" x="0px" y="0px"
	 viewBox="0 0 779 186.1" style="enable-background:new 0 0 779 186.1;" xml:space="preserve">
<style type="text/css">
	.st0{fill-rule:evenodd;clip-rule:evenodd;fill:#F18F97;}
	.st1{fill:#FEF1EE;}
	.st2{font-family:'OleoScript-Regular';}
	.st3{font-size:50.9444px;}
</style>
<g>
	<path class="st0" d="M37.3,169.6l442.9,3.8c49.4-1.1,72.1-54.6,102.7-54.6l41.2,0l101.7,0v1.5c0,2.1,2.1,3.9,4.6,3.9l16.6,0
		c2.5,0,4.6-1.7,4.6-3.9v-1.5h11l0.1,0l0.1,0l0.1,0l0.1,0l0.1,0l0.1,0l0.1,0l0.1,0l0.1,0l0.1,0l0.1,0l0.1,0l0.1,0l0.1,0l0.1,0v0
		l0.1,0l0,0l0.1,0l0.1,0v0l0.1,0v0c0.2-0.1,0.3-0.1,0.5-0.2c1-0.5,1.8-1.4,2.2-2.3l0-0.1v0l0-0.1l0,0l0-0.1v0l0-0.1v0l0-0.1l0,0
		l0-0.1l0,0l0-0.1v0l0-0.1l0-0.1l0-0.1v0l0-0.1l0-0.1v0l0-0.1l0-0.1V68.9l0-0.2l0-0.2v0l0-0.2l0-0.2l0,0l0-0.2c0-0.1,0-0.2-0.1-0.3
		v0c-0.5-2.5-2.6-4.5-5.3-5.3l0,0l-0.2-0.1h0c-0.5-0.1-1.1-0.3-1.6-0.3l-0.2,0l-0.2,0h0l-0.2,0l-0.2,0l-0.2,0h-8.3v-1.5
		c0-2.1-2.1-3.9-4.6-3.9l-16.6,0c-2.5,0-4.6,1.7-4.6,3.9v1.5l-101.7,0l-41.2,0c-31.6,0-51.7-55.2-102.7-54.6L37.3,11.4
		c-13.1,0.1-23.8,9.1-23.8,20.1l0,117.8C13.5,160.5,24.1,169.5,37.3,169.6L37.3,169.6z M768.1,68L768.1,68l-0.1-0.3
		C768.1,67.8,768.1,67.9,768.1,68z"/>
</g>
<text transform="matrix(1 0 0 1 521.469 105.1949)" class="st1 st2 st3">Vinguide</text>
</svg>
