<?xml version="1.0" encoding="UTF-8"?>
<svg id="Lag_1" data-name="Lag 1" xmlns="http://www.w3.org/2000/svg" viewBox="0 0 1159.84 4000">
  <defs>
    <style>
      .cls-1 {
        fill: none;
        fill-rule: evenodd;
        stroke: #000;
        stroke-miterlimit: 10;
        stroke-width: 7px;
      }
    </style>
  </defs>
  <path class="cls-1" d="M1035.72,3704.71l21.55-2135.38c-6.25-238.28-313.96-347.51-313.96-495.09V385.01h8.86c12.21,0,22.19-10,22.19-22.2v-79.87c0-12.21-9.97-22.19-22.19-22.19h-8.86v-53.94s-.03-.69-.03-.69l-.05-.68-.06-.68-.08-.67-.09-.67-.11-.66-.12-.65-.13-.65-.16-.64-.18-.64-.19-.64-.19-.62-.23-.62-.23-.61h0l-.25-.6h0l-.26-.61-.27-.59h-.02l-.28-.57h-.01c-.38-.78-.81-1.53-1.3-2.25-3.14-4.91-7.83-8.73-13.38-10.77l-.61-.22h-.02l-.61-.2h0l-.64-.19h0l-.62-.18h0l-.64-.15h0l-.65-.14h0l-.65-.13h-.02l-.66-.11-.67-.08-.66-.08h-.02l-.66-.05-.69-.05h0l-.68-.03h-.7s-259.15-.01-259.15-.01h-1.03s-1.03,.05-1.03,.05h0l-1.01,.07-1.01,.1h0l-1,.12c-.68,.07-1.34,.18-1.99,.29h0c-14.13,2.55-25.77,12.55-30.63,25.77h0l-.34,.91h0c-.84,2.5-1.46,5.08-1.78,7.75l-.12,1-.1,1v.02l-.05,1.01-.03,1.02-.02,1.03v39.95h-8.89c-12.19,0-22.18,9.97-22.18,22.19v79.87c0,12.21,9.99,22.2,22.18,22.2h8.89v689.23c0,152.36-316.91,249.3-313.96,495.09l23.96,2135.5c.69,63.22,52.41,114.52,115.73,114.52H919.97c63.37,0,115.11-51.28,115.75-114.64h0ZM452.23,180.99h0l-1.99,.29c.65-.11,1.32-.22,1.99-.29Z"/>
</svg>